<svg xmlns="http://www.w3.org/2000/svg" height="335px" width="512px" version="1.1"><polyline points="0.5,0.0,0.5,4.0,0.5,8.0,0.5,12.0,0.5,16.0,0.5,20.0,0.5,24.0,0.5,28.0,0.5,32.0,0.5,36.0,0.5,40.0,0.5,44.0,0.5,48.0,0.5,52.0,0.5,56.0,0.5,60.0,0.5,64.0,0.5,68.0,0.5,72.0,0.5,76.0,0.5,80.0,0.5,84.0,0.5,88.0,0.5,92.0,0.5,96.0,0.5,100.0,0.5,104.0,0.5,108.0,0.5,112.0,0.5,116.0,0.5,120.0,0.5,124.0,0.5,128.0,0.5,132.0,0.5,136.0,0.5,140.0,0.5,144.0,0.5,148.0,0.5,152.0,0.5,156.0,0.5,160.0,0.5,164.0,0.5,168.0,0.5,172.0,0.5,176.0,0.5,180.0,0.5,184.0,0.5,188.0,0.5,192.0,0.5,196.0,0.5,200.0,0.5,204.0,0.5,208.0,0.5,212.0,0.5,216.0,0.5,220.0,0.5,224.0,0.5,228.0,0.5,232.0,0.5,236.0,0.5,240.0,0.5,244.0,0.5,248.0,0.5,252.0,0.5,256.0,0.5,260.0,0.5,264.0,0.5,268.0,0.5,272.0,0.5,276.0,0.5,280.0,0.5,284.0,0.5,288.0,0.5,292.0,0.5,296.0,0.5,300.0,0.5,304.0,0.5,308.0,0.5,312.0,0.5,316.0,0.5,320.0,0.5,324.0,0.5,328.0,0.5,332.0,2.5,334.5,6.5,334.5,10.5,334.5,14.5,334.5,18.5,334.5,22.5,334.5,26.5,334.5,30.5,334.5,34.5,334.5,38.5,334.5,42.5,334.5,46.5,334.5,50.5,334.5,54.5,334.5,58.5,334.5,62.5,334.5,66.5,334.5,70.5,334.5,74.5,334.5,78.5,334.5,82.5,334.5,86.5,334.5,90.5,334.5,94.5,334.5,98.5,334.5,102.5,334.5,106.5,334.5,110.5,334.5,114.5,334.5,118.5,334.5,122.5,334.5,126.5,334.5,130.5,334.5,134.5,334.5,138.5,334.5,142.5,334.5,146.5,334.5,150.5,334.5,154.5,334.5,158.5,334.5,162.5,334.5,166.5,334.5,170.5,334.5,174.5,334.5,178.5,334.5,182.5,334.5,186.5,334.5,190.5,334.5,194.5,334.5,198.5,334.5,202.5,334.5,206.5,334.5,210.5,334.5,214.5,334.5,218.5,334.5,222.5,334.5,226.5,334.5" stroke="black" stroke-width="1" fill="none" />
<polyline points="283.5,334.5,287.5,334.5,291.5,334.5,295.5,334.5,299.5,334.5,303.5,334.5,307.5,334.5,311.5,334.5,315.5,334.5,319.5,334.5,323.5,334.5,327.5,334.5,331.5,334.5,335.5,334.5,339.5,334.5,343.5,334.5,347.5,334.5,351.5,334.5,355.5,334.5,359.5,334.5,363.5,334.5,367.5,334.5,371.5,334.5,375.5,334.5,379.5,334.5,383.5,334.5,387.5,334.5,391.5,334.5,395.5,334.5,399.5,334.5,403.5,334.5,407.5,334.5,411.5,334.5,415.5,334.5,419.5,334.5,423.5,334.5,427.5,334.5,431.5,334.5,435.5,334.5,439.5,334.5,443.5,334.5,447.5,334.5,451.5,334.5,455.5,334.5,459.5,334.5,463.5,334.5,467.5,334.5,471.5,334.5,475.5,334.5,479.5,334.5,483.5,334.5,487.5,334.5,491.5,334.5,495.5,334.5,499.5,334.5,503.5,334.5,507.5,334.5" stroke="black" stroke-width="1" fill="none" />
<polyline points="467.0,195.5,463.0,205.5,459.0,213.0,455.0,219.5,451.0,225.0,447.0,230.0,443.0,234.5,439.0,239.0,435.0,242.5,431.0,246.5,427.0,249.5,423.0,253.0,419.0,256.0,415.0,258.5,411.0,261.0,407.0,263.5,403.0,266.0,399.0,268.5,395.0,270.5,391.0,272.5,387.0,274.5,383.0,276.5,379.0,278.5,375.0,280.0,371.0,281.5,367.0,283.0,363.0,284.5,359.0,286.0,355.0,287.5,351.0,288.5,347.0,290.0,343.0,291.0,339.0,292.0,335.0,293.0,331.0,294.0,327.0,295.0,323.0,296.0,319.0,296.5,315.0,297.5,311.0,298.0,307.0,298.5,303.0,299.0,299.0,299.5,295.0,300.0,291.0,300.5,287.0,301.0,283.0,301.5,279.0,301.5,275.0,302.0,271.0,302.0,267.0,302.0,263.0,302.5,259.0,302.5,255.0,302.5,251.0,302.5,247.0,302.5,243.0,302.0,239.0,302.0,235.0,301.5,231.0,301.5,227.0,301.0,223.0,301.0,219.0,300.5,215.0,300.0,211.0,299.5,207.0,299.0,203.0,298.5,199.0,297.5,195.0,297.0,191.0,296.0,187.0,295.5,183.0,294.5,179.0,293.5,175.0,292.5,171.0,291.5,167.0,290.5,163.0,289.0,159.0,288.0,155.0,287.0,151.0,285.5,147.0,284.0,143.0,282.5,139.0,281.0,135.0,279.0,131.0,277.5,127.0,275.5,123.0,274.0,119.0,271.5,115.0,269.5,111.0,267.5,107.0,265.0,103.0,262.5,99.0,260.0,95.0,257.5,91.0,254.5,87.0,251.5,83.0,248.0,79.0,245.0,75.0,241.0,71.0,237.0,67.0,233.0,63.0,228.0,59.0,223.0,55.0,217.0,51.0,210.0,47.0,201.5,43.0,190.5" stroke="black" stroke-width="1" fill="none" />
<polyline points="17.5,199.0,21.5,210.0,25.5,218.5,29.5,225.5,33.5,231.5,37.5,237.5,41.5,242.5,45.5,247.0,49.5,251.5,53.5,255.5,57.5,259.0,61.5,263.0,65.5,266.0,69.5,269.5,73.5,272.5,77.5,275.5,81.5,278.0,85.5,280.5,89.5,283.0,93.5,285.5,97.5,288.0,101.5,290.0,105.5,292.0,109.5,294.0,113.5,296.0,117.5,298.0,121.5,300.0,125.5,301.5,129.5,303.0,133.5,304.5,137.5,306.0,141.5,307.5,145.5,309.0,149.5,310.0,153.5,311.5,157.5,312.5,161.5,314.0,165.5,315.0,169.5,316.0,173.5,317.0,177.5,318.0,181.5,318.5,185.5,319.5,189.5,320.0,193.5,321.0,197.5,321.5,201.5,322.0,205.5,323.0,209.5,323.5,213.5,323.5,217.5,324.0,221.5,324.5,225.5,325.0,229.5,325.5,233.5,325.5,237.5,325.5,241.5,326.0,245.5,326.0,249.5,326.0,253.5,326.0,257.5,326.0,261.5,326.0,265.5,326.0,269.5,326.0,273.5,326.0,277.5,325.5,281.5,325.5,285.5,325.0,289.5,324.5,293.5,324.5,297.5,324.0,301.5,323.5,305.5,323.0,309.5,322.5,313.5,321.5,317.5,321.0,321.5,320.5,325.5,319.5,329.5,318.5,333.5,318.0,337.5,317.0,341.5,316.0,345.5,315.0,349.5,314.0,353.5,313.0,357.5,311.5,361.5,310.5,365.5,309.0,369.5,308.0,373.5,306.5,377.5,305.0,381.5,303.5,385.5,302.0,389.5,300.0,393.5,298.5,397.5,296.5,401.5,294.5,405.5,292.5,409.5,290.5,413.5,288.5,417.5,286.0,421.5,283.5,425.5,281.0,429.5,278.5,433.5,276.0,437.5,273.0,441.5,270.0,445.5,267.0,449.5,263.5,453.5,260.0,457.5,256.0,461.5,252.0,465.5,248.0,469.5,243.0,473.5,238.5,477.5,233.0,481.5,227.0,485.5,219.5,489.5,211.5,493.5,201.0" stroke="black" stroke-width="1" fill="none" />
<polyline points="503.5,208.0,499.5,217.5,495.5,225.0,491.5,231.5,487.5,237.5,483.5,243.0,479.5,248.0,475.5,252.5,471.5,256.5,467.5,260.5,463.5,264.5,459.5,268.0,455.5,271.5,451.5,274.5,447.5,277.5,443.5,280.5,439.5,283.5,435.5,286.0,431.5,288.5,427.5,291.0,423.5,293.0,419.5,295.5,415.5,297.5,411.5,299.5,407.5,301.5,403.5,303.5,399.5,305.5,395.5,307.0,391.5,308.5,387.5,310.5,383.5,312.0,379.5,313.5,375.5,314.5,371.5,316.0,367.5,317.5,363.5,318.5,359.5,320.0,355.5,321.0,351.5,322.0,347.5,323.0,343.5,324.0,339.5,325.0,335.5,326.0,331.5,326.5,327.5,327.5,323.5,328.5,319.5,329.0,315.5,329.5,311.5,330.0,307.5,331.0,303.5,331.5,299.5,332.0,295.5,332.0,291.5,332.5,287.5,333.0,283.5,333.0,279.5,333.5,275.5,333.5,271.5,334.0,267.5,334.0,263.5,334.0,259.5,334.0,255.5,334.0,251.5,334.0,247.5,334.0,243.5,334.0,239.5,334.0,235.5,333.5,231.5,333.5,227.5,333.0,223.5,333.0,219.5,332.5,215.5,332.0,211.5,331.5,207.5,331.5,203.5,330.5,199.5,330.0,195.5,329.5,191.5,329.0,187.5,328.0,183.5,327.5,179.5,326.5,175.5,325.5,171.5,325.0,167.5,324.0,163.5,323.0,159.5,322.0,155.5,321.0,151.5,319.5,147.5,318.5,143.5,317.0,139.5,316.0,135.5,314.5,131.5,313.0,127.5,311.5,123.5,310.0,119.5,308.5,115.5,306.5,111.5,305.0,107.5,303.0,103.5,301.0,99.5,299.5,95.5,297.0,91.5,295.0,87.5,292.5,83.5,290.5,79.5,288.0,75.5,285.5,71.5,283.0,67.5,280.0,63.5,277.0,59.5,274.0,55.5,271.0,51.5,267.5,47.5,264.0,43.5,260.0,39.5,256.0,35.5,251.5,31.5,247.0,27.5,242.0,23.5,236.5,19.5,230.5,15.5,223.5,11.5,215.5,7.5,206.5" stroke="black" stroke-width="1" fill="none" />
<polyline points="1.5,185.5,2.0,189.5,3.0,193.5,4.0,197.5,5.0,201.5,6.5,205.5,8.0,209.5,9.5,213.5,11.5,217.5,13.5,221.5,15.5,225.5,18.0,229.5,20.5,233.5,23.5,237.5,26.0,241.5,29.5,245.5,32.5,249.5,36.0,253.5,40.0,257.5,44.0,261.5,48.5,265.5,53.0,269.5,57.5,273.5,63.0,277.5,68.5,281.5,74.0,285.5,80.5,289.5,87.5,293.5,94.5,297.5,102.5,301.5,111.0,305.5,120.5,309.5,130.5,313.5,142.0,317.5" stroke="black" stroke-width="1" fill="none" />
<polyline points="131.0,180.5,135.0,190.5,139.0,197.5,143.0,203.0,147.0,207.5,151.0,212.0,155.0,215.5,159.0,219.0,163.0,222.0,167.0,224.5,171.0,227.0,175.0,229.5,179.0,231.5,183.0,233.5,187.0,235.0,191.0,237.0,195.0,238.5,199.0,239.5,203.0,241.0,207.0,242.0,211.0,243.0,215.0,244.0,219.0,245.0,223.0,245.5,227.0,246.0,231.0,246.5,235.0,247.0,239.0,247.5,243.0,247.5,247.0,247.5,251.0,247.5,255.0,247.5,259.0,247.5,263.0,247.5,267.0,247.0,271.0,247.0,275.0,246.0,279.0,245.5,283.0,245.0,287.0,244.0,291.0,243.5,295.0,242.5,299.0,241.5,303.0,240.0,307.0,239.0,311.0,237.5,315.0,235.5,319.0,234.0,323.0,232.0,327.0,230.0,331.0,228.0,335.0,225.5,339.0,223.0,343.0,220.0,347.0,216.5,351.0,213.0,355.0,209.0,359.0,204.5,362.0,200.5,359.0,204.5,355.5,208.5,351.5,212.5,347.0,216.5,342.0,220.5,336.5,224.5,330.0,228.5,322.0,232.5,313.0,236.5,301.5,240.5" stroke="black" stroke-width="1" fill="none" />
<polyline points="355.5,287.0,367.0,283.0,377.0,279.0,386.0,275.0,394.0,271.0,401.5,267.0,408.0,263.0,414.0,259.0,420.0,255.0,425.0,251.0,430.0,247.0,434.5,243.0,439.0,239.0,443.0,235.0,446.5,231.0,449.5,227.0,452.5,223.0,455.5,219.0,458.0,215.0,460.5,211.0,462.5,207.0,464.5,203.0,466.0,199.0,467.5,195.0,468.5,191.0,469.5,187.0,470.5,183.0,471.5,179.0,471.5,175.0,472.0,171.0,472.0,167.0,472.0,163.0,471.0,160.0,467.0,160.0,463.0,160.0,459.0,160.0,455.0,160.0,451.0,160.0,447.0,160.0,443.0,160.0,439.0,160.0,435.0,160.0,431.0,160.0,427.0,160.0,423.0,160.0,419.0,160.0,415.0,160.0,411.0,160.0,407.0,160.0,403.0,160.0,399.0,160.0,395.0,160.0,391.0,160.0,387.0,160.0,383.0,160.0,379.0,160.0,375.0,160.0,371.0,160.0,367.0,160.0,363.0,160.0,359.0,160.0,355.0,160.0,351.0,160.0,347.0,160.0,343.0,160.0,339.0,160.0,335.0,160.0,331.0,160.0,327.0,160.0,323.0,160.0,319.0,160.0,315.0,160.0,311.0,160.0,307.0,160.0,303.0,160.0,299.0,160.0,295.0,160.0,291.0,160.0,287.0,160.0,283.0,160.0,279.0,160.0,275.0,160.0,271.0,160.0,267.0,160.0,263.0,160.0,259.0,160.0,255.0,160.0,251.0,160.0,247.0,160.0,243.0,160.0,239.0,160.0,235.0,160.0,231.0,160.0,227.0,160.0,223.0,160.0,219.0,160.0,215.0,161.0" stroke="black" stroke-width="1" fill="none" />
<polyline points="215.5,160.0,215.0,164.0,215.0,168.0,215.0,172.0,215.0,176.0,215.0,180.0,215.0,184.0,215.0,188.0,215.0,192.0,215.5,196.0,216.5,200.0,220.5,198.5,224.5,198.5,228.5,198.5,232.5,198.5,236.5,198.5,240.5,198.5,244.5,198.5,248.5,198.5,252.5,198.5,256.5,198.5,260.5,198.5,264.5,198.5,268.5,198.5,272.5,198.5,276.5,198.5,280.5,198.5,284.5,198.5,288.5,198.5,292.5,198.5,296.5,198.5,300.5,198.5,304.5,198.5,308.5,198.5,312.5,198.5,316.5,198.5,320.5,198.5,324.5,198.5,328.5,198.5,332.5,198.5,336.5,198.5,340.5,198.5,344.5,198.5,348.5,198.5,352.5,198.5,356.5,198.5,360.5,198.5" stroke="black" stroke-width="1" fill="none" />
<polyline points="457.5,125.0,453.5,125.0,449.5,125.0,445.5,125.0,441.5,125.0,437.5,125.0,433.5,125.0,429.5,125.0,425.5,125.0,421.5,125.0,417.5,125.0,413.5,125.0,409.5,125.0,405.5,125.0,401.5,125.0,397.5,125.0,393.5,125.0,389.5,125.0,385.5,125.0,381.5,125.0,377.5,125.0,373.5,125.0,369.5,125.0,365.5,125.0,361.5,122.5,357.5,117.5,353.5,113.5,349.5,110.0,345.5,106.5,341.5,103.5,337.5,100.5,333.5,98.0,329.5,96.0,325.5,93.5,321.5,92.0,317.5,90.0,313.5,88.5,309.5,87.0,305.5,85.5,301.5,84.0,297.5,83.0,293.5,82.0,289.5,81.0,285.5,80.0,281.5,79.5,277.5,79.0,273.5,78.5,269.5,78.0,265.5,77.5,261.5,77.5,257.5,77.0,253.5,77.0,249.5,77.0,245.5,77.0,241.5,77.5,237.5,77.5,233.5,78.0,229.5,78.5,225.5,79.0,221.5,79.5,217.5,80.0,213.5,81.0,209.5,82.0,205.5,83.0,201.5,84.0,197.5,85.5,193.5,87.0,189.5,88.5,185.5,90.0,181.5,92.0,177.5,93.5,173.5,96.0,169.5,98.0,165.5,101.0,161.5,103.5,157.5,106.5,153.5,110.0,149.5,113.5,145.5,118.0,141.5,122.5,137.5,128.5,133.5,135.5,129.5,145.5" stroke="black" stroke-width="1" fill="none" />
<polyline points="43.0,139.0,47.0,129.0,51.0,121.5,55.0,115.0,59.0,109.0,63.0,104.0,67.0,99.5,71.0,95.5,75.0,91.5,79.0,88.0,83.0,84.5,87.0,81.5,91.0,78.5,95.0,75.5,99.0,73.0,103.0,70.5,107.0,68.0,111.0,65.5,115.0,63.5,119.0,61.5,123.0,59.5,127.0,57.5,131.0,55.5,135.0,54.0,139.0,52.5,143.0,50.5,147.0,49.0,151.0,48.0,155.0,46.5,159.0,45.0,163.0,44.0,167.0,43.0,171.0,42.0,175.0,40.5,179.0,40.0,183.0,39.0,187.0,38.0,191.0,37.0,195.0,36.5,199.0,36.0,203.0,35.0,207.0,34.5,211.0,34.0,215.0,33.5,219.0,33.0,223.0,32.5,227.0,32.5,231.0,32.0,235.0,31.5,239.0,31.5,243.0,31.0,247.0,31.0,251.0,31.0,255.0,31.0,259.0,31.0,263.0,31.0,267.0,31.5,271.0,31.5,275.0,31.5,279.0,32.0,283.0,32.0,287.0,32.5,291.0,33.0,295.0,33.5,299.0,33.5,303.0,34.5,307.0,35.0,311.0,35.5,315.0,36.0,319.0,37.0,323.0,37.5,327.0,38.5,331.0,39.5,335.0,40.5,339.0,41.5,343.0,42.5,347.0,43.5,351.0,44.5,355.0,46.0,359.0,47.0,363.0,48.5,367.0,50.0,371.0,51.5,375.0,53.0,379.0,55.0,383.0,56.5,387.0,58.5,391.0,60.5,395.0,62.5,399.0,64.5,403.0,67.0,407.0,69.0,411.0,71.5,415.0,74.5,419.0,77.0,423.0,80.0,427.0,83.0,431.0,86.5,435.0,90.0,439.0,93.5,443.0,97.5,447.0,102.0,451.0,107.0,455.0,112.5,459.0,118.5" stroke="black" stroke-width="1" fill="none" />
<polyline points="504.5,126.5,500.5,117.0,496.5,109.5,492.5,102.5,488.5,97.0,484.5,91.5,480.5,86.5,476.5,82.0,472.5,78.0,468.5,73.5,464.5,70.0,460.5,66.5,456.5,63.0,452.5,59.5,448.5,56.5,444.5,54.0,440.5,51.0,436.5,48.0,432.5,46.0,428.5,43.5,424.5,41.0,420.5,39.0,416.5,36.5,412.5,34.5,408.5,32.5,404.5,30.5,400.5,29.0,396.5,27.0,392.5,25.5,388.5,24.0,384.5,22.5,380.5,20.5,376.5,19.5,372.5,18.0,368.5,16.5,364.5,15.5,360.5,14.0,356.5,13.0,352.5,12.0,348.5,11.0,344.5,10.0,340.5,9.0,336.5,8.0,332.5,7.0,328.5,6.5,324.5,5.5,320.5,5.0,316.5,4.5,312.5,3.5,308.5,3.0,304.5,2.5,300.5,2.0,296.5,2.0,292.5,1.5" stroke="black" stroke-width="1" fill="none" />
<polyline points="358.0,23.0,370.5,27.0,381.0,31.0,390.5,35.0,399.5,39.0,407.5,43.0,415.0,47.0,422.0,51.0,428.0,55.0,434.0,59.0,439.5,63.0,445.0,67.0,449.5,71.0,454.0,75.0,458.5,79.0,462.5,83.0,466.0,87.0,469.5,91.0,472.5,95.0,476.0,99.0,478.5,103.0,481.0,107.0,483.5,111.0,486.0,115.0,488.0,119.0,489.5,123.0,491.5,127.0,493.0,131.0,494.5,135.0,495.5,139.0,496.5,143.0,497.5,147.0,498.0,151.0,498.5,155.0,499.0,159.0,499.0,163.0,499.0,167.0,499.0,171.0,499.0,175.0,498.5,179.0,498.0,183.0,497.5,187.0,496.5,191.0,495.5,195.0,494.5,199.0,493.0,203.0,491.5,207.0,490.0,211.0,488.0,215.0,486.0,219.0,484.0,223.0,481.5,227.0,479.0,231.0,476.0,235.0,473.0,239.0,469.5,243.0,466.5,247.0,462.5,251.0,458.5,255.0,454.5,259.0,450.0,263.0,445.0,267.0,440.0,271.0,434.5,275.0,428.5,279.0,422.5,283.0,415.5,287.0,408.5,291.0,400.5,295.0,392.0,299.0,382.0,303.0" stroke="black" stroke-width="1" fill="none" />
<polyline points="511.5,332.0,511.5,328.0,511.5,324.0,511.5,320.0,511.5,316.0,511.5,312.0,511.5,308.0,511.5,304.0,511.5,300.0,511.5,296.0,511.5,292.0,511.5,288.0,511.5,284.0,511.5,280.0,511.5,276.0,511.5,272.0,511.5,268.0,511.5,264.0,511.5,260.0,511.5,256.0,511.5,252.0,511.5,248.0,511.5,244.0,511.5,240.0,511.5,236.0,511.5,232.0,511.5,228.0,511.5,224.0,511.5,220.0,511.5,216.0,511.5,212.0,511.5,208.0,511.5,204.0,511.5,200.0,511.5,196.0,511.5,192.0,511.5,188.0,511.5,184.0" stroke="black" stroke-width="1" fill="none" />
<polyline points="495.5,135.0,491.5,124.0,487.5,115.5,483.5,108.5,479.5,102.5,475.5,97.0,471.5,91.5,467.5,87.0,463.5,82.5,459.5,78.5,455.5,74.5,451.5,71.0,447.5,67.5,443.5,64.5,439.5,61.5,435.5,58.5,431.5,56.0,427.5,53.0,423.5,50.5,419.5,48.5,415.5,46.0,411.5,44.0,407.5,41.5,403.5,39.5,399.5,37.5,395.5,36.0,391.5,34.0,387.5,32.5,383.5,30.5,379.5,29.0,375.5,27.5,371.5,26.0,367.5,25.0,363.5,23.5,359.5,22.0,355.5,21.0,351.5,20.0,347.5,18.5,343.5,18.0,339.5,16.5,335.5,16.0,331.5,15.0,327.5,14.0,323.5,13.5,319.5,12.5,315.5,12.0,311.5,11.5,307.5,11.0,303.5,10.0,299.5,10.0,295.5,9.5,291.5,9.0,287.5,8.5,283.5,8.0,279.5,8.0,275.5,8.0,271.5,7.5,267.5,7.5,263.5,7.5,259.5,7.5,255.5,7.5,251.5,7.5,247.5,7.5,243.5,7.5,239.5,7.5,235.5,8.0,231.5,8.0,227.5,8.5,223.5,8.5,219.5,9.0,215.5,9.5,211.5,10.0,207.5,10.5,203.5,11.0,199.5,11.5,195.5,12.0,191.5,13.0,187.5,13.5,183.5,14.5,179.5,15.0,175.5,16.0,171.5,17.0,167.5,18.0,163.5,19.0,159.5,20.0,155.5,21.0,151.5,22.5,147.5,24.0,143.5,25.0,139.5,26.5,135.5,28.0,131.5,29.5,127.5,31.0,123.5,32.5,119.5,34.5,115.5,36.0,111.5,38.0,107.5,40.0,103.5,42.0,99.5,44.0,95.5,46.5,91.5,48.5,87.5,51.0,83.5,53.5,79.5,56.5,75.5,59.0,71.5,62.0,67.5,65.0,63.5,68.5,59.5,72.0,55.5,75.5,51.5,79.0,47.5,83.5,43.5,88.0,39.5,92.5,35.5,97.5,31.5,103.5,27.5,110.0,23.5,117.0,19.5,126.0,15.5,137.0" stroke="black" stroke-width="1" fill="none" />
<polyline points="6.5,128.0,10.5,118.5,14.5,111.0,18.5,104.0,22.5,98.0,26.5,92.5,30.5,87.5,34.5,82.5,38.5,78.5,42.5,74.5,46.5,70.5,50.5,67.0,54.5,63.5,58.5,60.5,62.5,57.0,66.5,54.0,70.5,51.5,74.5,49.0,78.5,46.5,82.5,44.0,86.5,41.5,90.5,39.0,94.5,37.0,98.5,35.0,102.5,33.0,106.5,31.0,110.5,29.0,114.5,27.5,118.5,26.0,122.5,24.0,126.5,22.5,130.5,21.0,134.5,19.5,138.5,18.0,142.5,17.0,146.5,15.5,150.5,14.5,154.5,13.0,158.5,12.0,162.5,11.0,166.5,10.0,170.5,9.0,174.5,8.0,178.5,7.5,182.5,6.5,186.5,6.0,190.5,5.0,194.5,4.5,198.5,4.0,202.5,3.5,206.5,3.0,210.5,2.5,214.5,2.0,218.5,1.5" stroke="black" stroke-width="1" fill="none" />
<polyline points="162.0,44.0,150.0,48.0,139.5,52.0,129.5,56.0,121.5,60.0,113.5,64.0,106.5,68.0,100.5,72.0,94.5,76.0,88.5,80.0,83.5,84.0,79.0,88.0,74.5,92.0,70.5,96.0,66.5,100.0,63.0,104.0,60.0,108.0,57.0,112.0,54.5,116.0,52.0,120.0,49.5,124.0,47.5,128.0,46.0,132.0,44.5,136.0,43.0,140.0,41.5,144.0,41.0,148.0,40.0,152.0,39.5,156.0,39.0,160.0,38.5,164.0,38.5,168.0,39.0,172.0,39.0,176.0,39.5,180.0,40.5,184.0,41.0,188.0,42.0,192.0,43.5,196.0,45.0,200.0,46.5,204.0,48.5,208.0,50.5,212.0,53.0,216.0,55.5,220.0,58.0,224.0,61.0,228.0,64.5,232.0,68.0,236.0,72.0,240.0,76.0,244.0,80.5,248.0,85.5,252.0,91.0,256.0,96.5,260.0,102.5,264.0,109.5,268.0,116.5,272.0,124.5,276.0,133.5,280.0,143.5,284.0,154.5,288.0" stroke="black" stroke-width="1" fill="none" />
<polyline points="195.5,240.0,185.5,236.0,177.0,232.0,170.0,228.0,164.0,224.0,158.5,220.0,153.5,216.0,149.5,212.0,145.5,208.0,142.0,204.0,139.0,200.0,136.5,196.0,134.5,192.0,132.5,188.0,131.0,184.0,129.5,180.0,128.5,176.0,128.0,172.0,127.5,168.0,127.0,164.0,127.0,160.0,127.5,156.0,128.0,152.0,129.0,148.0,130.0,144.0,131.5,140.0,133.5,136.0,135.5,132.0,138.0,128.0,140.5,124.0,143.5,120.0,147.0,116.0,151.0,112.0,156.0,108.0,161.0,104.0,166.5,100.0,173.0,96.0,181.0,92.0,190.0,88.0,201.5,84.0" stroke="black" stroke-width="1" fill="none" />
<polyline points="144.5,24.5,133.5,28.5,123.5,32.5,114.5,36.5,106.0,40.5,98.5,44.5,91.5,48.5,85.0,52.5,79.0,56.5,73.5,60.5,68.5,64.5,63.5,68.5,58.5,72.5,54.5,76.5,50.0,80.5,46.5,84.5,43.0,88.5,39.5,92.5,36.5,96.5,33.5,100.5,31.0,104.5,28.5,108.5,26.0,112.5,24.0,116.5,22.0,120.5,20.0,124.5,18.5,128.5,17.0,132.5,16.0,136.5,15.0,140.5,14.0,144.5,13.0,148.5,12.5,152.5,12.0,156.5,11.5,160.5,11.5,164.5,11.5,168.5,11.5,172.5,12.0,176.5,12.5,180.5,13.0,184.5,13.5,188.5,14.5,192.5,15.5,196.5,16.5,200.5,18.0,204.5,19.5,208.5,21.5,212.5,23.5,216.5,25.5,220.5,27.5,224.5,30.0,228.5,32.5,232.5,35.5,236.5,38.5,240.5,42.0,244.5,45.0,248.5,49.0,252.5,53.0,256.5,57.0,260.5,61.5,264.5,66.5,268.5,71.5,272.5,77.0,276.5,83.0,280.5,89.5,284.5,96.5,288.5,103.5,292.5,112.0,296.5,120.5,300.5,130.0,304.5,140.5,308.5" stroke="black" stroke-width="1" fill="none" />
<polyline points="305.0,86.5,315.5,90.5,324.0,94.5,331.5,98.5,338.0,102.5,343.5,106.5,348.5,110.5,352.5,114.5,356.5,118.5,360.0,122.5" stroke="black" stroke-width="1" fill="none" />
<polyline points="349.5,45.5,361.5,49.5,372.0,53.5,381.5,57.5,390.5,61.5,398.0,65.5,405.0,69.5,411.5,73.5,417.5,77.5,423.0,81.5,428.0,85.5,432.5,89.5,437.0,93.5,441.0,97.5,444.5,101.5,448.0,105.5,451.5,109.5,454.0,113.5,457.0,117.5,459.5,121.5" stroke="black" stroke-width="1" fill="none" />
<polyline points="511.5,149.5,511.5,145.5,511.5,141.5,511.5,137.5,511.5,133.5,511.5,129.5,511.5,125.5,511.5,121.5,511.5,117.5,511.5,113.5,511.5,109.5,511.5,105.5,511.5,101.5,511.5,97.5,511.5,93.5,511.5,89.5,511.5,85.5,511.5,81.5,511.5,77.5,511.5,73.5,511.5,69.5,511.5,65.5,511.5,61.5,511.5,57.5,511.5,53.5,511.5,49.5,511.5,45.5,511.5,41.5,511.5,37.5,511.5,33.5,511.5,29.5,511.5,25.5,511.5,21.5,511.5,17.5,511.5,13.5,511.5,9.5,511.5,5.5,511.5,1.5,508.0,0.5,504.0,0.5,500.0,0.5,496.0,0.5,492.0,0.5,488.0,0.5,484.0,0.5,480.0,0.5,476.0,0.5,472.0,0.5,468.0,0.5,464.0,0.5,460.0,0.5,456.0,0.5,452.0,0.5,448.0,0.5,444.0,0.5,440.0,0.5,436.0,0.5,432.0,0.5,428.0,0.5,424.0,0.5,420.0,0.5,416.0,0.5,412.0,0.5,408.0,0.5,404.0,0.5,400.0,0.5,396.0,0.5,392.0,0.5,388.0,0.5,384.0,0.5,380.0,0.5,376.0,0.5,372.0,0.5,368.0,0.5,364.0,0.5,360.0,0.5,356.0,0.5,352.0,0.5,348.0,0.5,344.0,0.5,340.0,0.5,336.0,0.5,332.0,0.5,328.0,0.5,324.0,0.5,320.0,0.5,316.0,0.5,312.0,0.5,308.0,0.5,304.0,0.5,300.0,0.5,296.0,0.5,292.0,0.5,288.0,0.5,284.0,0.5,280.0,0.5,276.0,0.5,272.0,0.5,268.0,0.5,264.0,0.5,260.0,0.5,256.0,0.5,252.0,0.5,248.0,0.5,244.0,0.5,240.0,0.5,236.0,0.5,232.0,0.5,228.0,0.5,224.0,0.5,220.0,0.5,216.0,0.5,212.0,0.5,208.0,0.5,204.0,0.5,200.0,0.5,196.0,0.5,192.0,0.5,188.0,0.5,184.0,0.5,180.0,0.5,176.0,0.5,172.0,0.5,168.0,0.5,164.0,0.5,160.0,0.5,156.0,0.5,152.0,0.5,148.0,0.5,144.0,0.5,140.0,0.5,136.0,0.5,132.0,0.5,128.0,0.5,124.0,0.5,120.0,0.5,116.0,0.5,112.0,0.5,108.0,0.5,104.0,0.5,100.0,0.5,96.0,0.5,92.0,0.5,88.0,0.5,84.0,0.5,80.0,0.5,76.0,0.5,72.0,0.5,68.0,0.5,64.0,0.5,60.0,0.5,56.0,0.5,52.0,0.5,48.0,0.5,44.0,0.5,40.0,0.5,36.0,0.5,32.0,0.5,28.0,0.5,24.0,0.5,20.0,0.5,16.0,0.5,12.0,0.5,8.0,0.5,4.0,0.5,0.0,0.5" stroke="black" stroke-width="1" fill="none" />
<polyline points="1.5,147.0,2.5,143.0,3.5,139.0,4.5,135.0,5.5,131.0,7.0,127.0,8.5,123.0,10.5,119.0,12.5,115.0,14.5,111.0,16.5,107.0,19.5,103.0,22.0,99.0,24.5,95.0,27.5,91.0,31.0,87.0,34.5,83.0,38.0,79.0,42.0,75.0,46.0,71.0,50.5,67.0,55.0,63.0,60.0,59.0,65.5,55.0,71.0,51.0,77.0,47.0,84.0,43.0,90.5,39.0,98.5,35.0,106.5,31.0,115.0,27.0,125.0,23.0,135.5,19.0,147.5,15.0" stroke="black" stroke-width="1" fill="none" />
<polyline points="362.5,15.5,374.5,19.5,385.5,23.5,395.5,27.5,404.5,31.5,412.5,35.5,420.0,39.5,427.0,43.5,434.0,47.5,440.0,51.5,445.5,55.5,451.0,59.5,456.0,63.5,461.0,67.5,465.0,71.5,469.5,75.5,473.0,79.5,477.0,83.5,480.5,87.5,483.5,91.5,486.5,95.5,489.5,99.5,492.0,103.5,494.5,107.5,497.0,111.5,499.0,115.5,501.0,119.5,502.5,123.5,504.0,127.5,505.5,131.5,507.0,135.5,508.0,139.5,509.0,143.5,509.5,147.5,510.0,151.5,511.0,155.5,511.0,159.5,511.5,163.5,511.5,167.5,511.5,171.5,511.0,175.5,511.0,179.5,510.0,183.5,509.5,187.5,508.5,191.5,507.5,195.5,506.5,199.5,505.5,203.5,504.0,207.5,502.0,211.5,500.5,215.5,498.5,219.5,496.5,223.5,494.0,227.5,491.5,231.5,489.0,235.5,486.0,239.5,483.0,243.5,480.0,247.5,476.5,251.5,472.5,255.5,468.5,259.5,464.5,263.5,460.0,267.5,455.0,271.5,450.0,275.5,445.0,279.5,439.0,283.5,433.0,287.5,426.0,291.5,419.0,295.5,411.0,299.5,403.5,303.5,394.0,307.5,384.0,311.5,373.0,315.5" stroke="black" stroke-width="1" fill="none" />
<polyline points="12.0,141.0,44.0,141.0" stroke="black" stroke-width="1" fill="none" />
<polyline points="40.0,144.0,12.0,172.0" stroke="black" stroke-width="1" fill="none" />
<polyline points="12.0,173.0,40.0,173.0" stroke="black" stroke-width="1" fill="none" />
<polyline points="40.0,172.0,16.0,196.0" stroke="black" stroke-width="1" fill="none" />
<polyline points="16.0,197.0,44.0,197.0" stroke="black" stroke-width="1" fill="none" />
<polyline points="44.0,196.0,24.0,216.0" stroke="black" stroke-width="1" fill="none" />
<polyline points="24.0,215.0,52.0,215.0" stroke="black" stroke-width="1" fill="none" />
<polyline points="52.0,216.0,36.0,232.0" stroke="black" stroke-width="1" fill="none" />
<polyline points="36.0,231.0,64.0,231.0" stroke="black" stroke-width="1" fill="none" />
<polyline points="64.0,232.0,48.0,248.0" stroke="black" stroke-width="1" fill="none" />
<polyline points="48.0,247.0,80.0,247.0" stroke="black" stroke-width="1" fill="none" />
<polyline points="80.0,248.0,64.0,264.0" stroke="black" stroke-width="1" fill="none" />
<polyline points="64.0,263.0,100.0,263.0" stroke="black" stroke-width="1" fill="none" />
<polyline points="100.0,260.0,84.0,276.0" stroke="black" stroke-width="1" fill="none" />
<polyline points="84.0,280.0,104.0,260.0" stroke="black" stroke-width="1" fill="none" />
<polyline points="104.0,264.0,88.0,280.0" stroke="black" stroke-width="1" fill="none" />
<polyline points="88.0,279.0,132.0,279.0" stroke="black" stroke-width="1" fill="none" />
<polyline points="132.0,280.0,116.0,296.0" stroke="black" stroke-width="1" fill="none" />
<polyline points="116.0,295.0,180.0,295.0" stroke="black" stroke-width="1" fill="none" />
<polyline points="180.0,292.0,160.0,312.0" stroke="black" stroke-width="1" fill="none" />
<polyline points="164.0,312.0,184.0,292.0" stroke="black" stroke-width="1" fill="none" />
<polyline points="184.0,296.0,168.0,312.0" stroke="black" stroke-width="1" fill="none" />
<polyline points="172.0,312.0,188.0,296.0" stroke="black" stroke-width="1" fill="none" />
<polyline points="192.0,296.0,172.0,316.0" stroke="black" stroke-width="1" fill="none" />
<polyline points="180.0,316.0,200.0,296.0" stroke="black" stroke-width="1" fill="none" />
<polyline points="196.0,296.0,176.0,316.0" stroke="black" stroke-width="1" fill="none" />
<polyline points="180.0,315.0,332.0,315.0" stroke="black" stroke-width="1" fill="none" />
<polyline points="348.0,312.0,384.0,276.0" stroke="black" stroke-width="1" fill="none" />
<polyline points="384.0,273.0,436.0,273.0" stroke="black" stroke-width="1" fill="none" />
<polyline points="424.0,280.0,484.0,220.0" stroke="black" stroke-width="1" fill="none" />
<polyline points="480.0,228.0,436.0,272.0" stroke="black" stroke-width="1" fill="none" />
<polyline points="424.0,255.0,456.0,255.0" stroke="black" stroke-width="1" fill="none" />
<polyline points="440.0,239.0,472.0,239.0" stroke="black" stroke-width="1" fill="none" />
<polyline points="484.0,223.0,456.0,223.0" stroke="black" stroke-width="1" fill="none" />
<polyline points="456.0,220.0,500.0,176.0" stroke="black" stroke-width="1" fill="none" />
<polyline points="500.0,172.0,460.0,212.0" stroke="black" stroke-width="1" fill="none" />
<polyline points="460.0,213.0,488.0,213.0" stroke="black" stroke-width="1" fill="none" />
<polyline points="488.0,212.0,416.0,284.0" stroke="black" stroke-width="1" fill="none" />
<polyline points="400.0,292.0,496.0,196.0" stroke="black" stroke-width="1" fill="none" />
<polyline points="496.0,192.0,392.0,296.0" stroke="black" stroke-width="1" fill="none" />
<polyline points="376.0,304.0,500.0,180.0" stroke="black" stroke-width="1" fill="none" />
<polyline points="496.0,188.0,384.0,300.0" stroke="black" stroke-width="1" fill="none" />
<polyline points="372.0,304.0,424.0,252.0" stroke="black" stroke-width="1" fill="none" />
<polyline points="424.0,249.0,464.0,249.0" stroke="black" stroke-width="1" fill="none" />
<polyline points="476.0,231.0,448.0,231.0" stroke="black" stroke-width="1" fill="none" />
<polyline points="448.0,229.0,480.0,229.0" stroke="black" stroke-width="1" fill="none" />
<polyline points="488.0,211.0,464.0,211.0" stroke="black" stroke-width="1" fill="none" />
<polyline points="464.0,207.0,492.0,207.0" stroke="black" stroke-width="1" fill="none" />
<polyline points="492.0,204.0,408.0,288.0" stroke="black" stroke-width="1" fill="none" />
<polyline points="392.0,275.0,432.0,275.0" stroke="black" stroke-width="1" fill="none" />
<polyline points="416.0,259.0,452.0,259.0" stroke="black" stroke-width="1" fill="none" />
<polyline points="436.0,243.0,468.0,243.0" stroke="black" stroke-width="1" fill="none" />
<polyline points="480.0,227.0,452.0,227.0" stroke="black" stroke-width="1" fill="none" />
<polyline points="448.0,225.0,484.0,225.0" stroke="black" stroke-width="1" fill="none" />
<polyline points="492.0,203.0,468.0,203.0" stroke="black" stroke-width="1" fill="none" />
<polyline points="468.0,199.0,492.0,199.0" stroke="black" stroke-width="1" fill="none" />
<polyline points="496.0,195.0,472.0,195.0" stroke="black" stroke-width="1" fill="none" />
<polyline points="472.0,191.0,496.0,191.0" stroke="black" stroke-width="1" fill="none" />
<polyline points="496.0,179.0,476.0,179.0" stroke="black" stroke-width="1" fill="none" />
<polyline points="476.0,175.0,496.0,175.0" stroke="black" stroke-width="1" fill="none" />
<polyline points="500.0,168.0,464.0,204.0" stroke="black" stroke-width="1" fill="none" />
<polyline points="464.0,205.0,492.0,205.0" stroke="black" stroke-width="1" fill="none" />
<polyline points="496.0,187.0,472.0,187.0" stroke="black" stroke-width="1" fill="none" />
<polyline points="472.0,188.0,500.0,160.0" stroke="black" stroke-width="1" fill="none" />
<polyline points="500.0,156.0,472.0,184.0" stroke="black" stroke-width="1" fill="none" />
<polyline points="472.0,183.0,496.0,183.0" stroke="black" stroke-width="1" fill="none" />
<polyline points="500.0,164.0,468.0,196.0" stroke="black" stroke-width="1" fill="none" />
<polyline points="468.0,197.0,496.0,197.0" stroke="black" stroke-width="1" fill="none" />
<polyline points="496.0,171.0,476.0,171.0" stroke="black" stroke-width="1" fill="none" />
<polyline points="476.0,167.0,500.0,167.0" stroke="black" stroke-width="1" fill="none" />
<polyline points="500.0,152.0,472.0,180.0" stroke="black" stroke-width="1" fill="none" />
<polyline points="472.0,181.0,500.0,181.0" stroke="black" stroke-width="1" fill="none" />
<polyline points="496.0,163.0,476.0,163.0" stroke="black" stroke-width="1" fill="none" />
<polyline points="472.0,164.0,496.0,140.0" stroke="black" stroke-width="1" fill="none" />
<polyline points="496.0,136.0,472.0,160.0" stroke="black" stroke-width="1" fill="none" />
<polyline points="472.0,159.0,496.0,159.0" stroke="black" stroke-width="1" fill="none" />
<polyline points="496.0,148.0,472.0,172.0" stroke="black" stroke-width="1" fill="none" />
<polyline points="472.0,173.0,500.0,173.0" stroke="black" stroke-width="1" fill="none" />
<polyline points="500.0,148.0,472.0,176.0" stroke="black" stroke-width="1" fill="none" />
<polyline points="472.0,177.0,500.0,177.0" stroke="black" stroke-width="1" fill="none" />
<polyline points="500.0,185.0,472.0,185.0" stroke="black" stroke-width="1" fill="none" />
<polyline points="468.0,189.0,500.0,189.0" stroke="black" stroke-width="1" fill="none" />
<polyline points="500.0,169.0,472.0,169.0" stroke="black" stroke-width="1" fill="none" />
<polyline points="472.0,168.0,496.0,144.0" stroke="black" stroke-width="1" fill="none" />
<polyline points="496.0,132.0,468.0,160.0" stroke="black" stroke-width="1" fill="none" />
<polyline points="464.0,160.0,492.0,132.0" stroke="black" stroke-width="1" fill="none" />
<polyline points="492.0,128.0,460.0,160.0" stroke="black" stroke-width="1" fill="none" />
<polyline points="456.0,160.0,492.0,124.0" stroke="black" stroke-width="1" fill="none" />
<polyline points="488.0,124.0,452.0,160.0" stroke="black" stroke-width="1" fill="none" />
<polyline points="448.0,160.0,488.0,120.0" stroke="black" stroke-width="1" fill="none" />
<polyline points="488.0,116.0,444.0,160.0" stroke="black" stroke-width="1" fill="none" />
<polyline points="440.0,160.0,484.0,116.0" stroke="black" stroke-width="1" fill="none" />
<polyline points="484.0,112.0,436.0,160.0" stroke="black" stroke-width="1" fill="none" />
<polyline points="432.0,160.0,484.0,108.0" stroke="black" stroke-width="1" fill="none" />
<polyline points="480.0,108.0,428.0,160.0" stroke="black" stroke-width="1" fill="none" />
<polyline points="424.0,160.0,460.0,124.0" stroke="black" stroke-width="1" fill="none" />
<polyline points="460.0,121.0,492.0,121.0" stroke="black" stroke-width="1" fill="none" />
<polyline points="480.0,104.0,464.0,120.0" stroke="black" stroke-width="1" fill="none" />
<polyline points="464.0,123.0,488.0,123.0" stroke="black" stroke-width="1" fill="none" />
<polyline points="492.0,127.0,464.0,127.0" stroke="black" stroke-width="1" fill="none" />
<polyline points="460.0,120.0,480.0,100.0" stroke="black" stroke-width="1" fill="none" />
<polyline points="476.0,100.0,460.0,116.0" stroke="black" stroke-width="1" fill="none" />
<polyline points="460.0,115.0,484.0,115.0" stroke="black" stroke-width="1" fill="none" />
<polyline points="476.0,96.0,456.0,116.0" stroke="black" stroke-width="1" fill="none" />
<polyline points="456.0,113.0,488.0,113.0" stroke="black" stroke-width="1" fill="none" />
<polyline points="472.0,96.0,456.0,112.0" stroke="black" stroke-width="1" fill="none" />
<polyline points="456.0,111.0,484.0,111.0" stroke="black" stroke-width="1" fill="none" />
<polyline points="472.0,92.0,456.0,108.0" stroke="black" stroke-width="1" fill="none" />
<polyline points="452.0,108.0,468.0,92.0" stroke="black" stroke-width="1" fill="none" />
<polyline points="468.0,88.0,452.0,104.0" stroke="black" stroke-width="1" fill="none" />
<polyline points="452.0,107.0,480.0,107.0" stroke="black" stroke-width="1" fill="none" />
<polyline points="488.0,119.0,460.0,119.0" stroke="black" stroke-width="1" fill="none" />
<polyline points="460.0,117.0,492.0,117.0" stroke="black" stroke-width="1" fill="none" />
<polyline points="456.0,124.0,420.0,160.0" stroke="black" stroke-width="1" fill="none" />
<polyline points="416.0,160.0,452.0,124.0" stroke="black" stroke-width="1" fill="none" />
<polyline points="448.0,124.0,412.0,160.0" stroke="black" stroke-width="1" fill="none" />
<polyline points="408.0,160.0,444.0,124.0" stroke="black" stroke-width="1" fill="none" />
<polyline points="440.0,124.0,404.0,160.0" stroke="black" stroke-width="1" fill="none" />
<polyline points="400.0,160.0,436.0,124.0" stroke="black" stroke-width="1" fill="none" />
<polyline points="432.0,124.0,396.0,160.0" stroke="black" stroke-width="1" fill="none" />
<polyline points="392.0,160.0,428.0,124.0" stroke="black" stroke-width="1" fill="none" />
<polyline points="424.0,124.0,388.0,160.0" stroke="black" stroke-width="1" fill="none" />
<polyline points="384.0,160.0,420.0,124.0" stroke="black" stroke-width="1" fill="none" />
<polyline points="416.0,124.0,380.0,160.0" stroke="black" stroke-width="1" fill="none" />
<polyline points="376.0,160.0,412.0,124.0" stroke="black" stroke-width="1" fill="none" />
<polyline points="408.0,124.0,372.0,160.0" stroke="black" stroke-width="1" fill="none" />
<polyline points="368.0,160.0,404.0,124.0" stroke="black" stroke-width="1" fill="none" />
<polyline points="400.0,124.0,364.0,160.0" stroke="black" stroke-width="1" fill="none" />
<polyline points="360.0,160.0,396.0,124.0" stroke="black" stroke-width="1" fill="none" />
<polyline points="392.0,124.0,356.0,160.0" stroke="black" stroke-width="1" fill="none" />
<polyline points="352.0,160.0,388.0,124.0" stroke="black" stroke-width="1" fill="none" />
<polyline points="384.0,124.0,348.0,160.0" stroke="black" stroke-width="1" fill="none" />
<polyline points="344.0,160.0,380.0,124.0" stroke="black" stroke-width="1" fill="none" />
<polyline points="376.0,124.0,340.0,160.0" stroke="black" stroke-width="1" fill="none" />
<polyline points="336.0,160.0,372.0,124.0" stroke="black" stroke-width="1" fill="none" />
<polyline points="368.0,124.0,332.0,160.0" stroke="black" stroke-width="1" fill="none" />
<polyline points="328.0,160.0,364.0,124.0" stroke="black" stroke-width="1" fill="none" />
<polyline points="360.0,124.0,324.0,160.0" stroke="black" stroke-width="1" fill="none" />
<polyline points="320.0,160.0,360.0,120.0" stroke="black" stroke-width="1" fill="none" />
<polyline points="356.0,120.0,316.0,160.0" stroke="black" stroke-width="1" fill="none" />
<polyline points="312.0,160.0,356.0,116.0" stroke="black" stroke-width="1" fill="none" />
<polyline points="352.0,116.0,308.0,160.0" stroke="black" stroke-width="1" fill="none" />
<polyline points="304.0,160.0,352.0,112.0" stroke="black" stroke-width="1" fill="none" />
<polyline points="348.0,112.0,300.0,160.0" stroke="black" stroke-width="1" fill="none" />
<polyline points="296.0,160.0,348.0,108.0" stroke="black" stroke-width="1" fill="none" />
<polyline points="344.0,108.0,292.0,160.0" stroke="black" stroke-width="1" fill="none" />
<polyline points="288.0,160.0,344.0,104.0" stroke="black" stroke-width="1" fill="none" />
<polyline points="340.0,104.0,284.0,160.0" stroke="black" stroke-width="1" fill="none" />
<polyline points="280.0,160.0,336.0,104.0" stroke="black" stroke-width="1" fill="none" />
<polyline points="336.0,100.0,276.0,160.0" stroke="black" stroke-width="1" fill="none" />
<polyline points="272.0,160.0,332.0,100.0" stroke="black" stroke-width="1" fill="none" />
<polyline points="332.0,96.0,268.0,160.0" stroke="black" stroke-width="1" fill="none" />
<polyline points="264.0,160.0,328.0,96.0" stroke="black" stroke-width="1" fill="none" />
<polyline points="324.0,96.0,260.0,160.0" stroke="black" stroke-width="1" fill="none" />
<polyline points="256.0,160.0,324.0,92.0" stroke="black" stroke-width="1" fill="none" />
<polyline points="320.0,92.0,252.0,160.0" stroke="black" stroke-width="1" fill="none" />
<polyline points="248.0,160.0,316.0,92.0" stroke="black" stroke-width="1" fill="none" />
<polyline points="316.0,88.0,244.0,160.0" stroke="black" stroke-width="1" fill="none" />
<polyline points="240.0,160.0,312.0,88.0" stroke="black" stroke-width="1" fill="none" />
<polyline points="308.0,88.0,236.0,160.0" stroke="black" stroke-width="1" fill="none" />
<polyline points="232.0,160.0,304.0,88.0" stroke="black" stroke-width="1" fill="none" />
<polyline points="304.0,84.0,228.0,160.0" stroke="black" stroke-width="1" fill="none" />
<polyline points="224.0,160.0,300.0,84.0" stroke="black" stroke-width="1" fill="none" />
<polyline points="296.0,84.0,220.0,160.0" stroke="black" stroke-width="1" fill="none" />
<polyline points="216.0,164.0,160.0,220.0" stroke="black" stroke-width="1" fill="none" />
<polyline points="160.0,217.0,344.0,217.0" stroke="black" stroke-width="1" fill="none" />
<polyline points="340.0,220.0,360.0,200.0" stroke="black" stroke-width="1" fill="none" />
<polyline points="356.0,200.0,328.0,228.0" stroke="black" stroke-width="1" fill="none" />
<polyline points="320.0,232.0,352.0,200.0" stroke="black" stroke-width="1" fill="none" />
<polyline points="348.0,200.0,316.0,232.0" stroke="black" stroke-width="1" fill="none" />
<polyline points="308.0,236.0,344.0,200.0" stroke="black" stroke-width="1" fill="none" />
<polyline points="340.0,200.0,300.0,240.0" stroke="black" stroke-width="1" fill="none" />
<polyline points="296.0,240.0,336.0,200.0" stroke="black" stroke-width="1" fill="none" />
<polyline points="332.0,200.0,292.0,240.0" stroke="black" stroke-width="1" fill="none" />
<polyline points="284.0,244.0,328.0,200.0" stroke="black" stroke-width="1" fill="none" />
<polyline points="324.0,200.0,280.0,244.0" stroke="black" stroke-width="1" fill="none" />
<polyline points="276.0,244.0,320.0,200.0" stroke="black" stroke-width="1" fill="none" />
<polyline points="316.0,200.0,272.0,244.0" stroke="black" stroke-width="1" fill="none" />
<polyline points="268.0,244.0,312.0,200.0" stroke="black" stroke-width="1" fill="none" />
<polyline points="308.0,200.0,264.0,244.0" stroke="black" stroke-width="1" fill="none" />
<polyline points="260.0,244.0,304.0,200.0" stroke="black" stroke-width="1" fill="none" />
<polyline points="300.0,200.0,256.0,244.0" stroke="black" stroke-width="1" fill="none" />
<polyline points="252.0,244.0,296.0,200.0" stroke="black" stroke-width="1" fill="none" />
<polyline points="292.0,200.0,248.0,244.0" stroke="black" stroke-width="1" fill="none" />
<polyline points="244.0,244.0,288.0,200.0" stroke="black" stroke-width="1" fill="none" />
<polyline points="284.0,200.0,240.0,244.0" stroke="black" stroke-width="1" fill="none" />
<polyline points="236.0,244.0,280.0,200.0" stroke="black" stroke-width="1" fill="none" />
<polyline points="276.0,200.0,232.0,244.0" stroke="black" stroke-width="1" fill="none" />
<polyline points="228.0,244.0,272.0,200.0" stroke="black" stroke-width="1" fill="none" />
<polyline points="268.0,200.0,224.0,244.0" stroke="black" stroke-width="1" fill="none" />
<polyline points="224.0,243.0,280.0,243.0" stroke="black" stroke-width="1" fill="none" />
<polyline points="268.0,245.0,236.0,245.0" stroke="black" stroke-width="1" fill="none" />
<polyline points="220.0,244.0,264.0,200.0" stroke="black" stroke-width="1" fill="none" />
<polyline points="260.0,200.0,216.0,244.0" stroke="black" stroke-width="1" fill="none" />
<polyline points="216.0,240.0,256.0,200.0" stroke="black" stroke-width="1" fill="none" />
<polyline points="252.0,200.0,212.0,240.0" stroke="black" stroke-width="1" fill="none" />
<polyline points="212.0,241.0,292.0,241.0" stroke="black" stroke-width="1" fill="none" />
<polyline points="296.0,297.0,392.0,297.0" stroke="black" stroke-width="1" fill="none" />
<polyline points="380.0,279.0,424.0,279.0" stroke="black" stroke-width="1" fill="none" />
<polyline points="412.0,263.0,448.0,263.0" stroke="black" stroke-width="1" fill="none" />
<polyline points="432.0,247.0,464.0,247.0" stroke="black" stroke-width="1" fill="none" />
<polyline points="476.0,235.0,444.0,235.0" stroke="black" stroke-width="1" fill="none" />
<polyline points="444.0,233.0,476.0,233.0" stroke="black" stroke-width="1" fill="none" />
<polyline points="484.0,219.0,460.0,219.0" stroke="black" stroke-width="1" fill="none" />
<polyline points="460.0,215.0,488.0,215.0" stroke="black" stroke-width="1" fill="none" />
<polyline points="496.0,193.0,468.0,193.0" stroke="black" stroke-width="1" fill="none" />
<polyline points="464.0,201.0,496.0,201.0" stroke="black" stroke-width="1" fill="none" />
<polyline points="500.0,165.0,472.0,165.0" stroke="black" stroke-width="1" fill="none" />
<polyline points="472.0,161.0,500.0,161.0" stroke="black" stroke-width="1" fill="none" />
<polyline points="492.0,209.0,460.0,209.0" stroke="black" stroke-width="1" fill="none" />
<polyline points="456.0,217.0,488.0,217.0" stroke="black" stroke-width="1" fill="none" />
<polyline points="484.0,221.0,452.0,221.0" stroke="black" stroke-width="1" fill="none" />
<polyline points="440.0,237.0,476.0,237.0" stroke="black" stroke-width="1" fill="none" />
<polyline points="472.0,241.0,436.0,241.0" stroke="black" stroke-width="1" fill="none" />
<polyline points="428.0,245.0,468.0,245.0" stroke="black" stroke-width="1" fill="none" />
<polyline points="460.0,251.0,428.0,251.0" stroke="black" stroke-width="1" fill="none" />
<polyline points="420.0,253.0,460.0,253.0" stroke="black" stroke-width="1" fill="none" />
<polyline points="456.0,257.0,412.0,257.0" stroke="black" stroke-width="1" fill="none" />
<polyline points="412.0,260.0,364.0,308.0" stroke="black" stroke-width="1" fill="none" />
<polyline points="360.0,308.0,400.0,268.0" stroke="black" stroke-width="1" fill="none" />
<polyline points="400.0,265.0,448.0,265.0" stroke="black" stroke-width="1" fill="none" />
<polyline points="452.0,261.0,408.0,261.0" stroke="black" stroke-width="1" fill="none" />
<polyline points="404.0,267.0,440.0,267.0" stroke="black" stroke-width="1" fill="none" />
<polyline points="436.0,271.0,396.0,271.0" stroke="black" stroke-width="1" fill="none" />
<polyline points="392.0,272.0,352.0,312.0" stroke="black" stroke-width="1" fill="none" />
<polyline points="344.0,312.0,376.0,280.0" stroke="black" stroke-width="1" fill="none" />
<polyline points="376.0,277.0,432.0,277.0" stroke="black" stroke-width="1" fill="none" />
<polyline points="440.0,269.0,392.0,269.0" stroke="black" stroke-width="1" fill="none" />
<polyline points="372.0,280.0,336.0,316.0" stroke="black" stroke-width="1" fill="none" />
<polyline points="332.0,316.0,364.0,284.0" stroke="black" stroke-width="1" fill="none" />
<polyline points="364.0,281.0,424.0,281.0" stroke="black" stroke-width="1" fill="none" />
<polyline points="420.0,283.0,372.0,283.0" stroke="black" stroke-width="1" fill="none" />
<polyline points="360.0,284.0,328.0,316.0" stroke="black" stroke-width="1" fill="none" />
<polyline points="324.0,316.0,352.0,288.0" stroke="black" stroke-width="1" fill="none" />
<polyline points="352.0,285.0,416.0,285.0" stroke="black" stroke-width="1" fill="none" />
<polyline points="412.0,287.0,360.0,287.0" stroke="black" stroke-width="1" fill="none" />
<polyline points="348.0,288.0,316.0,320.0" stroke="black" stroke-width="1" fill="none" />
<polyline points="312.0,320.0,340.0,292.0" stroke="black" stroke-width="1" fill="none" />
<polyline points="340.0,289.0,408.0,289.0" stroke="black" stroke-width="1" fill="none" />
<polyline points="404.0,291.0,348.0,291.0" stroke="black" stroke-width="1" fill="none" />
<polyline points="336.0,292.0,308.0,320.0" stroke="black" stroke-width="1" fill="none" />
<polyline points="304.0,320.0,332.0,292.0" stroke="black" stroke-width="1" fill="none" />
<polyline points="332.0,295.0,396.0,295.0" stroke="black" stroke-width="1" fill="none" />
<polyline points="324.0,296.0,300.0,320.0" stroke="black" stroke-width="1" fill="none" />
<polyline points="296.0,320.0,320.0,296.0" stroke="black" stroke-width="1" fill="none" />
<polyline points="320.0,293.0,400.0,293.0" stroke="black" stroke-width="1" fill="none" />
<polyline points="316.0,296.0,292.0,320.0" stroke="black" stroke-width="1" fill="none" />
<polyline points="284.0,324.0,312.0,296.0" stroke="black" stroke-width="1" fill="none" />
<polyline points="312.0,299.0,384.0,299.0" stroke="black" stroke-width="1" fill="none" />
<polyline points="308.0,296.0,280.0,324.0" stroke="black" stroke-width="1" fill="none" />
<polyline points="276.0,324.0,300.0,300.0" stroke="black" stroke-width="1" fill="none" />
<polyline points="296.0,300.0,272.0,324.0" stroke="black" stroke-width="1" fill="none" />
<polyline points="268.0,324.0,292.0,300.0" stroke="black" stroke-width="1" fill="none" />
<polyline points="288.0,300.0,264.0,324.0" stroke="black" stroke-width="1" fill="none" />
<polyline points="260.0,324.0,284.0,300.0" stroke="black" stroke-width="1" fill="none" />
<polyline points="280.0,300.0,256.0,324.0" stroke="black" stroke-width="1" fill="none" />
<polyline points="252.0,324.0,276.0,300.0" stroke="black" stroke-width="1" fill="none" />
<polyline points="276.0,303.0,376.0,303.0" stroke="black" stroke-width="1" fill="none" />
<polyline points="272.0,300.0,248.0,324.0" stroke="black" stroke-width="1" fill="none" />
<polyline points="244.0,324.0,268.0,300.0" stroke="black" stroke-width="1" fill="none" />
<polyline points="264.0,300.0,240.0,324.0" stroke="black" stroke-width="1" fill="none" />
<polyline points="236.0,324.0,260.0,300.0" stroke="black" stroke-width="1" fill="none" />
<polyline points="256.0,300.0,232.0,324.0" stroke="black" stroke-width="1" fill="none" />
<polyline points="228.0,324.0,252.0,300.0" stroke="black" stroke-width="1" fill="none" />
<polyline points="248.0,300.0,224.0,324.0" stroke="black" stroke-width="1" fill="none" />
<polyline points="224.0,320.0,244.0,300.0" stroke="black" stroke-width="1" fill="none" />
<polyline points="240.0,300.0,220.0,320.0" stroke="black" stroke-width="1" fill="none" />
<polyline points="216.0,320.0,236.0,300.0" stroke="black" stroke-width="1" fill="none" />
<polyline points="232.0,300.0,212.0,320.0" stroke="black" stroke-width="1" fill="none" />
<polyline points="208.0,320.0,228.0,300.0" stroke="black" stroke-width="1" fill="none" />
<polyline points="224.0,300.0,204.0,320.0" stroke="black" stroke-width="1" fill="none" />
<polyline points="200.0,320.0,220.0,300.0" stroke="black" stroke-width="1" fill="none" />
<polyline points="216.0,300.0,196.0,320.0" stroke="black" stroke-width="1" fill="none" />
<polyline points="192.0,320.0,212.0,300.0" stroke="black" stroke-width="1" fill="none" />
<polyline points="208.0,300.0,192.0,316.0" stroke="black" stroke-width="1" fill="none" />
<polyline points="188.0,316.0,208.0,296.0" stroke="black" stroke-width="1" fill="none" />
<polyline points="204.0,296.0,184.0,316.0" stroke="black" stroke-width="1" fill="none" />
<polyline points="184.0,317.0,328.0,317.0" stroke="black" stroke-width="1" fill="none" />
<polyline points="308.0,321.0,208.0,321.0" stroke="black" stroke-width="1" fill="none" />
<polyline points="200.0,319.0,312.0,319.0" stroke="black" stroke-width="1" fill="none" />
<polyline points="208.0,240.0,248.0,200.0" stroke="black" stroke-width="1" fill="none" />
<polyline points="244.0,200.0,204.0,240.0" stroke="black" stroke-width="1" fill="none" />
<polyline points="204.0,239.0,300.0,239.0" stroke="black" stroke-width="1" fill="none" />
<polyline points="240.0,200.0,200.0,240.0" stroke="black" stroke-width="1" fill="none" />
<polyline points="200.0,236.0,236.0,200.0" stroke="black" stroke-width="1" fill="none" />
<polyline points="232.0,200.0,196.0,236.0" stroke="black" stroke-width="1" fill="none" />
<polyline points="196.0,237.0,308.0,237.0" stroke="black" stroke-width="1" fill="none" />
<polyline points="228.0,200.0,192.0,236.0" stroke="black" stroke-width="1" fill="none" />
<polyline points="192.0,235.0,312.0,235.0" stroke="black" stroke-width="1" fill="none" />
<polyline points="224.0,200.0,188.0,236.0" stroke="black" stroke-width="1" fill="none" />
<polyline points="188.0,233.0,316.0,233.0" stroke="black" stroke-width="1" fill="none" />
<polyline points="220.0,200.0,188.0,232.0" stroke="black" stroke-width="1" fill="none" />
<polyline points="184.0,232.0,216.0,200.0" stroke="black" stroke-width="1" fill="none" />
<polyline points="216.0,196.0,180.0,232.0" stroke="black" stroke-width="1" fill="none" />
<polyline points="180.0,228.0,216.0,192.0" stroke="black" stroke-width="1" fill="none" />
<polyline points="216.0,188.0,176.0,228.0" stroke="black" stroke-width="1" fill="none" />
<polyline points="176.0,227.0,328.0,227.0" stroke="black" stroke-width="1" fill="none" />
<polyline points="216.0,184.0,172.0,228.0" stroke="black" stroke-width="1" fill="none" />
<polyline points="172.0,225.0,332.0,225.0" stroke="black" stroke-width="1" fill="none" />
<polyline points="216.0,180.0,172.0,224.0" stroke="black" stroke-width="1" fill="none" />
<polyline points="168.0,224.0,216.0,176.0" stroke="black" stroke-width="1" fill="none" />
<polyline points="216.0,172.0,168.0,220.0" stroke="black" stroke-width="1" fill="none" />
<polyline points="168.0,223.0,336.0,223.0" stroke="black" stroke-width="1" fill="none" />
<polyline points="216.0,168.0,164.0,220.0" stroke="black" stroke-width="1" fill="none" />
<polyline points="164.0,219.0,340.0,219.0" stroke="black" stroke-width="1" fill="none" />
<polyline points="292.0,84.0,160.0,216.0" stroke="black" stroke-width="1" fill="none" />
<polyline points="156.0,216.0,288.0,84.0" stroke="black" stroke-width="1" fill="none" />
<polyline points="288.0,80.0,156.0,212.0" stroke="black" stroke-width="1" fill="none" />
<polyline points="156.0,213.0,348.0,213.0" stroke="black" stroke-width="1" fill="none" />
<polyline points="452.0,109.0,484.0,109.0" stroke="black" stroke-width="1" fill="none" />
<polyline points="464.0,88.0,448.0,104.0" stroke="black" stroke-width="1" fill="none" />
<polyline points="448.0,103.0,476.0,103.0" stroke="black" stroke-width="1" fill="none" />
<polyline points="464.0,84.0,448.0,100.0" stroke="black" stroke-width="1" fill="none" />
<polyline points="448.0,101.0,480.0,101.0" stroke="black" stroke-width="1" fill="none" />
<polyline points="464.0,80.0,444.0,100.0" stroke="black" stroke-width="1" fill="none" />
<polyline points="444.0,99.0,476.0,99.0" stroke="black" stroke-width="1" fill="none" />
<polyline points="460.0,80.0,444.0,96.0" stroke="black" stroke-width="1" fill="none" />
<polyline points="444.0,95.0,472.0,95.0" stroke="black" stroke-width="1" fill="none" />
<polyline points="460.0,76.0,440.0,96.0" stroke="black" stroke-width="1" fill="none" />
<polyline points="440.0,93.0,476.0,93.0" stroke="black" stroke-width="1" fill="none" />
<polyline points="456.0,76.0,440.0,92.0" stroke="black" stroke-width="1" fill="none" />
<polyline points="436.0,92.0,452.0,76.0" stroke="black" stroke-width="1" fill="none" />
<polyline points="452.0,72.0,436.0,88.0" stroke="black" stroke-width="1" fill="none" />
<polyline points="436.0,89.0,472.0,89.0" stroke="black" stroke-width="1" fill="none" />
<polyline points="484.0,105.0,448.0,105.0" stroke="black" stroke-width="1" fill="none" />
<polyline points="444.0,97.0,476.0,97.0" stroke="black" stroke-width="1" fill="none" />
<polyline points="448.0,72.0,432.0,88.0" stroke="black" stroke-width="1" fill="none" />
<polyline points="432.0,87.0,464.0,87.0" stroke="black" stroke-width="1" fill="none" />
<polyline points="448.0,68.0,432.0,84.0" stroke="black" stroke-width="1" fill="none" />
<polyline points="428.0,84.0,444.0,68.0" stroke="black" stroke-width="1" fill="none" />
<polyline points="444.0,64.0,428.0,80.0" stroke="black" stroke-width="1" fill="none" />
<polyline points="428.0,83.0,460.0,83.0" stroke="black" stroke-width="1" fill="none" />
<polyline points="468.0,91.0,436.0,91.0" stroke="black" stroke-width="1" fill="none" />
<polyline points="428.0,85.0,468.0,85.0" stroke="black" stroke-width="1" fill="none" />
<polyline points="440.0,64.0,424.0,80.0" stroke="black" stroke-width="1" fill="none" />
<polyline points="424.0,79.0,456.0,79.0" stroke="black" stroke-width="1" fill="none" />
<polyline points="440.0,60.0,420.0,80.0" stroke="black" stroke-width="1" fill="none" />
<polyline points="420.0,77.0,460.0,77.0" stroke="black" stroke-width="1" fill="none" />
<polyline points="436.0,60.0,420.0,76.0" stroke="black" stroke-width="1" fill="none" />
<polyline points="416.0,76.0,432.0,60.0" stroke="black" stroke-width="1" fill="none" />
<polyline points="432.0,56.0,416.0,72.0" stroke="black" stroke-width="1" fill="none" />
<polyline points="416.0,75.0,452.0,75.0" stroke="black" stroke-width="1" fill="none" />
<polyline points="464.0,81.0,424.0,81.0" stroke="black" stroke-width="1" fill="none" />
<polyline points="412.0,73.0,456.0,73.0" stroke="black" stroke-width="1" fill="none" />
<polyline points="428.0,56.0,412.0,72.0" stroke="black" stroke-width="1" fill="none" />
<polyline points="412.0,71.0,448.0,71.0" stroke="black" stroke-width="1" fill="none" />
<polyline points="428.0,52.0,408.0,72.0" stroke="black" stroke-width="1" fill="none" />
<polyline points="408.0,69.0,452.0,69.0" stroke="black" stroke-width="1" fill="none" />
<polyline points="424.0,52.0,408.0,68.0" stroke="black" stroke-width="1" fill="none" />
<polyline points="404.0,68.0,420.0,52.0" stroke="black" stroke-width="1" fill="none" />
<polyline points="420.0,48.0,404.0,64.0" stroke="black" stroke-width="1" fill="none" />
<polyline points="404.0,67.0,444.0,67.0" stroke="black" stroke-width="1" fill="none" />
<polyline points="416.0,48.0,400.0,64.0" stroke="black" stroke-width="1" fill="none" />
<polyline points="400.0,63.0,436.0,63.0" stroke="black" stroke-width="1" fill="none" />
<polyline points="412.0,48.0,396.0,64.0" stroke="black" stroke-width="1" fill="none" />
<polyline points="396.0,60.0,412.0,44.0" stroke="black" stroke-width="1" fill="none" />
<polyline points="408.0,44.0,392.0,60.0" stroke="black" stroke-width="1" fill="none" />
<polyline points="392.0,59.0,432.0,59.0" stroke="black" stroke-width="1" fill="none" />
<polyline points="408.0,40.0,388.0,60.0" stroke="black" stroke-width="1" fill="none" />
<polyline points="388.0,56.0,404.0,40.0" stroke="black" stroke-width="1" fill="none" />
<polyline points="400.0,40.0,384.0,56.0" stroke="black" stroke-width="1" fill="none" />
<polyline points="384.0,57.0,436.0,57.0" stroke="black" stroke-width="1" fill="none" />
<polyline points="448.0,65.0,400.0,65.0" stroke="black" stroke-width="1" fill="none" />
<polyline points="392.0,61.0,440.0,61.0" stroke="black" stroke-width="1" fill="none" />
<polyline points="400.0,36.0,380.0,56.0" stroke="black" stroke-width="1" fill="none" />
<polyline points="380.0,55.0,424.0,55.0" stroke="black" stroke-width="1" fill="none" />
<polyline points="396.0,36.0,380.0,52.0" stroke="black" stroke-width="1" fill="none" />
<polyline points="376.0,52.0,392.0,36.0" stroke="black" stroke-width="1" fill="none" />
<polyline points="388.0,36.0,372.0,52.0" stroke="black" stroke-width="1" fill="none" />
<polyline points="372.0,51.0,420.0,51.0" stroke="black" stroke-width="1" fill="none" />
<polyline points="388.0,32.0,368.0,52.0" stroke="black" stroke-width="1" fill="none" />
<polyline points="368.0,48.0,384.0,32.0" stroke="black" stroke-width="1" fill="none" />
<polyline points="380.0,32.0,364.0,48.0" stroke="black" stroke-width="1" fill="none" />
<polyline points="364.0,49.0,424.0,49.0" stroke="black" stroke-width="1" fill="none" />
<polyline points="432.0,53.0,376.0,53.0" stroke="black" stroke-width="1" fill="none" />
<polyline points="360.0,48.0,380.0,28.0" stroke="black" stroke-width="1" fill="none" />
<polyline points="376.0,28.0,356.0,48.0" stroke="black" stroke-width="1" fill="none" />
<polyline points="356.0,44.0,372.0,28.0" stroke="black" stroke-width="1" fill="none" />
<polyline points="368.0,28.0,352.0,44.0" stroke="black" stroke-width="1" fill="none" />
<polyline points="352.0,45.0,416.0,45.0" stroke="black" stroke-width="1" fill="none" />
<polyline points="368.0,24.0,348.0,44.0" stroke="black" stroke-width="1" fill="none" />
<polyline points="348.0,43.0,404.0,43.0" stroke="black" stroke-width="1" fill="none" />
<polyline points="412.0,47.0,360.0,47.0" stroke="black" stroke-width="1" fill="none" />
<polyline points="344.0,44.0,364.0,24.0" stroke="black" stroke-width="1" fill="none" />
<polyline points="360.0,24.0,344.0,40.0" stroke="black" stroke-width="1" fill="none" />
<polyline points="340.0,40.0,356.0,24.0" stroke="black" stroke-width="1" fill="none" />
<polyline points="356.0,20.0,336.0,40.0" stroke="black" stroke-width="1" fill="none" />
<polyline points="332.0,40.0,352.0,20.0" stroke="black" stroke-width="1" fill="none" />
<polyline points="348.0,20.0,328.0,40.0" stroke="black" stroke-width="1" fill="none" />
<polyline points="328.0,36.0,344.0,20.0" stroke="black" stroke-width="1" fill="none" />
<polyline points="340.0,20.0,324.0,36.0" stroke="black" stroke-width="1" fill="none" />
<polyline points="320.0,36.0,340.0,16.0" stroke="black" stroke-width="1" fill="none" />
<polyline points="336.0,16.0,316.0,36.0" stroke="black" stroke-width="1" fill="none" />
<polyline points="312.0,36.0,332.0,16.0" stroke="black" stroke-width="1" fill="none" />
<polyline points="328.0,16.0,308.0,36.0" stroke="black" stroke-width="1" fill="none" />
<polyline points="308.0,32.0,324.0,16.0" stroke="black" stroke-width="1" fill="none" />
<polyline points="320.0,16.0,304.0,32.0" stroke="black" stroke-width="1" fill="none" />
<polyline points="300.0,32.0,320.0,12.0" stroke="black" stroke-width="1" fill="none" />
<polyline points="316.0,12.0,296.0,32.0" stroke="black" stroke-width="1" fill="none" />
<polyline points="296.0,33.0,392.0,33.0" stroke="black" stroke-width="1" fill="none" />
<polyline points="412.0,41.0,340.0,41.0" stroke="black" stroke-width="1" fill="none" />
<polyline points="332.0,39.0,396.0,39.0" stroke="black" stroke-width="1" fill="none" />
<polyline points="404.0,37.0,320.0,37.0" stroke="black" stroke-width="1" fill="none" />
<polyline points="312.0,35.0,384.0,35.0" stroke="black" stroke-width="1" fill="none" />
<polyline points="312.0,12.0,292.0,32.0" stroke="black" stroke-width="1" fill="none" />
<polyline points="288.0,32.0,308.0,12.0" stroke="black" stroke-width="1" fill="none" />
<polyline points="304.0,12.0,284.0,32.0" stroke="black" stroke-width="1" fill="none" />
<polyline points="280.0,32.0,300.0,12.0" stroke="black" stroke-width="1" fill="none" />
<polyline points="296.0,12.0,276.0,32.0" stroke="black" stroke-width="1" fill="none" />
<polyline points="272.0,32.0,292.0,12.0" stroke="black" stroke-width="1" fill="none" />
<polyline points="288.0,12.0,268.0,32.0" stroke="black" stroke-width="1" fill="none" />
<polyline points="264.0,32.0,288.0,8.0" stroke="black" stroke-width="1" fill="none" />
<polyline points="284.0,8.0,260.0,32.0" stroke="black" stroke-width="1" fill="none" />
<polyline points="256.0,32.0,280.0,8.0" stroke="black" stroke-width="1" fill="none" />
<polyline points="276.0,8.0,252.0,32.0" stroke="black" stroke-width="1" fill="none" />
<polyline points="248.0,32.0,272.0,8.0" stroke="black" stroke-width="1" fill="none" />
<polyline points="268.0,8.0,244.0,32.0" stroke="black" stroke-width="1" fill="none" />
<polyline points="240.0,32.0,264.0,8.0" stroke="black" stroke-width="1" fill="none" />
<polyline points="260.0,8.0,236.0,32.0" stroke="black" stroke-width="1" fill="none" />
<polyline points="232.0,32.0,256.0,8.0" stroke="black" stroke-width="1" fill="none" />
<polyline points="252.0,8.0,228.0,32.0" stroke="black" stroke-width="1" fill="none" />
<polyline points="224.0,32.0,248.0,8.0" stroke="black" stroke-width="1" fill="none" />
<polyline points="248.0,11.0,268.0,11.0" stroke="black" stroke-width="1" fill="none" />
<polyline points="280.0,31.0,376.0,31.0" stroke="black" stroke-width="1" fill="none" />
<polyline points="284.0,80.0,152.0,212.0" stroke="black" stroke-width="1" fill="none" />
<polyline points="152.0,211.0,352.0,211.0" stroke="black" stroke-width="1" fill="none" />
<polyline points="280.0,80.0,152.0,208.0" stroke="black" stroke-width="1" fill="none" />
<polyline points="148.0,208.0,276.0,80.0" stroke="black" stroke-width="1" fill="none" />
<polyline points="272.0,80.0,148.0,204.0" stroke="black" stroke-width="1" fill="none" />
<polyline points="148.0,207.0,356.0,207.0" stroke="black" stroke-width="1" fill="none" />
<polyline points="268.0,80.0,144.0,204.0" stroke="black" stroke-width="1" fill="none" />
<polyline points="144.0,203.0,360.0,203.0" stroke="black" stroke-width="1" fill="none" />
<polyline points="264.0,80.0,144.0,200.0" stroke="black" stroke-width="1" fill="none" />
<polyline points="144.0,199.0,216.0,199.0" stroke="black" stroke-width="1" fill="none" />
<polyline points="184.0,231.0,320.0,231.0" stroke="black" stroke-width="1" fill="none" />
<polyline points="312.0,91.0,192.0,91.0" stroke="black" stroke-width="1" fill="none" />
<polyline points="192.0,88.0,132.0,148.0" stroke="black" stroke-width="1" fill="none" />
<polyline points="132.0,147.0,496.0,147.0" stroke="black" stroke-width="1" fill="none" />
<polyline points="260.0,80.0,140.0,200.0" stroke="black" stroke-width="1" fill="none" />
<polyline points="140.0,197.0,364.0,197.0" stroke="black" stroke-width="1" fill="none" />
<polyline points="256.0,80.0,140.0,196.0" stroke="black" stroke-width="1" fill="none" />
<polyline points="140.0,195.0,212.0,195.0" stroke="black" stroke-width="1" fill="none" />
<polyline points="176.0,229.0,324.0,229.0" stroke="black" stroke-width="1" fill="none" />
<polyline points="284.0,83.0,220.0,83.0" stroke="black" stroke-width="1" fill="none" />
<polyline points="220.0,80.0,128.0,172.0" stroke="black" stroke-width="1" fill="none" />
<polyline points="128.0,173.0,216.0,173.0" stroke="black" stroke-width="1" fill="none" />
<polyline points="164.0,221.0,340.0,221.0" stroke="black" stroke-width="1" fill="none" />
<polyline points="252.0,80.0,140.0,192.0" stroke="black" stroke-width="1" fill="none" />
<polyline points="136.0,192.0,248.0,80.0" stroke="black" stroke-width="1" fill="none" />
<polyline points="244.0,80.0,136.0,188.0" stroke="black" stroke-width="1" fill="none" />
<polyline points="136.0,187.0,212.0,187.0" stroke="black" stroke-width="1" fill="none" />
<polyline points="156.0,215.0,348.0,215.0" stroke="black" stroke-width="1" fill="none" />
<polyline points="240.0,80.0,136.0,184.0" stroke="black" stroke-width="1" fill="none" />
<polyline points="132.0,184.0,236.0,80.0" stroke="black" stroke-width="1" fill="none" />
<polyline points="232.0,80.0,132.0,180.0" stroke="black" stroke-width="1" fill="none" />
<polyline points="132.0,179.0,212.0,179.0" stroke="black" stroke-width="1" fill="none" />
<polyline points="148.0,209.0,356.0,209.0" stroke="black" stroke-width="1" fill="none" />
<polyline points="272.0,77.0,232.0,77.0" stroke="black" stroke-width="1" fill="none" />
<polyline points="228.0,80.0,132.0,176.0" stroke="black" stroke-width="1" fill="none" />
<polyline points="132.0,175.0,212.0,175.0" stroke="black" stroke-width="1" fill="none" />
<polyline points="144.0,201.0,360.0,201.0" stroke="black" stroke-width="1" fill="none" />
<polyline points="224.0,80.0,132.0,172.0" stroke="black" stroke-width="1" fill="none" />
<polyline points="132.0,171.0,212.0,171.0" stroke="black" stroke-width="1" fill="none" />
<polyline points="144.0,205.0,356.0,205.0" stroke="black" stroke-width="1" fill="none" />
<polyline points="212.0,84.0,128.0,168.0" stroke="black" stroke-width="1" fill="none" />
<polyline points="128.0,169.0,216.0,169.0" stroke="black" stroke-width="1" fill="none" />
<polyline points="176.0,99.0,328.0,99.0" stroke="black" stroke-width="1" fill="none" />
<polyline points="208.0,84.0,128.0,164.0" stroke="black" stroke-width="1" fill="none" />
<polyline points="128.0,165.0,216.0,165.0" stroke="black" stroke-width="1" fill="none" />
<polyline points="184.0,95.0,320.0,95.0" stroke="black" stroke-width="1" fill="none" />
<polyline points="296.0,81.0,208.0,81.0" stroke="black" stroke-width="1" fill="none" />
<polyline points="204.0,84.0,128.0,160.0" stroke="black" stroke-width="1" fill="none" />
<polyline points="128.0,161.0,216.0,161.0" stroke="black" stroke-width="1" fill="none" />
<polyline points="204.0,87.0,300.0,87.0" stroke="black" stroke-width="1" fill="none" />
<polyline points="244.0,8.0,220.0,32.0" stroke="black" stroke-width="1" fill="none" />
<polyline points="216.0,32.0,240.0,8.0" stroke="black" stroke-width="1" fill="none" />
<polyline points="236.0,8.0,212.0,32.0" stroke="black" stroke-width="1" fill="none" />
<polyline points="204.0,36.0,232.0,8.0" stroke="black" stroke-width="1" fill="none" />
<polyline points="228.0,8.0,200.0,36.0" stroke="black" stroke-width="1" fill="none" />
<polyline points="196.0,36.0,220.0,12.0" stroke="black" stroke-width="1" fill="none" />
<polyline points="216.0,12.0,192.0,36.0" stroke="black" stroke-width="1" fill="none" />
<polyline points="188.0,36.0,212.0,12.0" stroke="black" stroke-width="1" fill="none" />
<polyline points="208.0,12.0,180.0,40.0" stroke="black" stroke-width="1" fill="none" />
<polyline points="176.0,40.0,204.0,12.0" stroke="black" stroke-width="1" fill="none" />
<polyline points="204.0,9.0,308.0,9.0" stroke="black" stroke-width="1" fill="none" />
<polyline points="200.0,12.0,172.0,40.0" stroke="black" stroke-width="1" fill="none" />
<polyline points="164.0,44.0,196.0,12.0" stroke="black" stroke-width="1" fill="none" />
<polyline points="200.0,15.0,312.0,15.0" stroke="black" stroke-width="1" fill="none" />
<polyline points="188.0,16.0,160.0,44.0" stroke="black" stroke-width="1" fill="none" />
<polyline points="152.0,48.0,184.0,16.0" stroke="black" stroke-width="1" fill="none" />
<polyline points="180.0,16.0,148.0,48.0" stroke="black" stroke-width="1" fill="none" />
<polyline points="140.0,52.0,176.0,16.0" stroke="black" stroke-width="1" fill="none" />
<polyline points="180.0,13.0,332.0,13.0" stroke="black" stroke-width="1" fill="none" />
<polyline points="308.0,85.0,196.0,85.0" stroke="black" stroke-width="1" fill="none" />
<polyline points="196.0,88.0,128.0,156.0" stroke="black" stroke-width="1" fill="none" />
<polyline points="128.0,157.0,500.0,157.0" stroke="black" stroke-width="1" fill="none" />
<polyline points="184.0,92.0,132.0,144.0" stroke="black" stroke-width="1" fill="none" />
<polyline points="132.0,143.0,496.0,143.0" stroke="black" stroke-width="1" fill="none" />
<polyline points="320.0,89.0,184.0,89.0" stroke="black" stroke-width="1" fill="none" />
<polyline points="176.0,93.0,328.0,93.0" stroke="black" stroke-width="1" fill="none" />
<polyline points="176.0,96.0,132.0,140.0" stroke="black" stroke-width="1" fill="none" />
<polyline points="132.0,141.0,500.0,141.0" stroke="black" stroke-width="1" fill="none" />
<polyline points="332.0,19.0,180.0,19.0" stroke="black" stroke-width="1" fill="none" />
<polyline points="168.0,20.0,136.0,52.0" stroke="black" stroke-width="1" fill="none" />
<polyline points="128.0,56.0,164.0,20.0" stroke="black" stroke-width="1" fill="none" />
<polyline points="164.0,17.0,348.0,17.0" stroke="black" stroke-width="1" fill="none" />
<polyline points="336.0,103.0,168.0,103.0" stroke="black" stroke-width="1" fill="none" />
<polyline points="168.0,100.0,140.0,128.0" stroke="black" stroke-width="1" fill="none" />
<polyline points="140.0,127.0,364.0,127.0" stroke="black" stroke-width="1" fill="none" />
<polyline points="332.0,97.0,168.0,97.0" stroke="black" stroke-width="1" fill="none" />
<polyline points="164.0,101.0,340.0,101.0" stroke="black" stroke-width="1" fill="none" />
<polyline points="348.0,23.0,164.0,23.0" stroke="black" stroke-width="1" fill="none" />
<polyline points="160.0,20.0,120.0,60.0" stroke="black" stroke-width="1" fill="none" />
<polyline points="112.0,64.0,152.0,24.0" stroke="black" stroke-width="1" fill="none" />
<polyline points="152.0,21.0,360.0,21.0" stroke="black" stroke-width="1" fill="none" />
<polyline points="148.0,24.0,100.0,72.0" stroke="black" stroke-width="1" fill="none" />
<polyline points="88.0,80.0,140.0,28.0" stroke="black" stroke-width="1" fill="none" />
<polyline points="140.0,25.0,372.0,25.0" stroke="black" stroke-width="1" fill="none" />
<polyline points="340.0,107.0,160.0,107.0" stroke="black" stroke-width="1" fill="none" />
<polyline points="160.0,105.0,344.0,105.0" stroke="black" stroke-width="1" fill="none" />
<polyline points="348.0,111.0,156.0,111.0" stroke="black" stroke-width="1" fill="none" />
<polyline points="152.0,109.0,352.0,109.0" stroke="black" stroke-width="1" fill="none" />
<polyline points="352.0,115.0,152.0,115.0" stroke="black" stroke-width="1" fill="none" />
<polyline points="148.0,113.0,356.0,113.0" stroke="black" stroke-width="1" fill="none" />
<polyline points="348.0,313.0,164.0,313.0" stroke="black" stroke-width="1" fill="none" />
<polyline points="164.0,311.0,348.0,311.0" stroke="black" stroke-width="1" fill="none" />
<polyline points="176.0,292.0,156.0,312.0" stroke="black" stroke-width="1" fill="none" />
<polyline points="156.0,308.0,172.0,292.0" stroke="black" stroke-width="1" fill="none" />
<polyline points="168.0,292.0,152.0,308.0" stroke="black" stroke-width="1" fill="none" />
<polyline points="152.0,309.0,360.0,309.0" stroke="black" stroke-width="1" fill="none" />
<polyline points="168.0,288.0,148.0,308.0" stroke="black" stroke-width="1" fill="none" />
<polyline points="148.0,307.0,364.0,307.0" stroke="black" stroke-width="1" fill="none" />
<polyline points="164.0,288.0,144.0,308.0" stroke="black" stroke-width="1" fill="none" />
<polyline points="144.0,304.0,160.0,288.0" stroke="black" stroke-width="1" fill="none" />
<polyline points="156.0,288.0,140.0,304.0" stroke="black" stroke-width="1" fill="none" />
<polyline points="140.0,305.0,372.0,305.0" stroke="black" stroke-width="1" fill="none" />
<polyline points="156.0,284.0,136.0,304.0" stroke="black" stroke-width="1" fill="none" />
<polyline points="136.0,303.0,236.0,303.0" stroke="black" stroke-width="1" fill="none" />
<polyline points="152.0,284.0,132.0,304.0" stroke="black" stroke-width="1" fill="none" />
<polyline points="132.0,300.0,148.0,284.0" stroke="black" stroke-width="1" fill="none" />
<polyline points="144.0,284.0,128.0,300.0" stroke="black" stroke-width="1" fill="none" />
<polyline points="128.0,299.0,200.0,299.0" stroke="black" stroke-width="1" fill="none" />
<polyline points="144.0,280.0,124.0,300.0" stroke="black" stroke-width="1" fill="none" />
<polyline points="124.0,296.0,140.0,280.0" stroke="black" stroke-width="1" fill="none" />
<polyline points="136.0,280.0,120.0,296.0" stroke="black" stroke-width="1" fill="none" />
<polyline points="120.0,297.0,216.0,297.0" stroke="black" stroke-width="1" fill="none" />
<polyline points="132.0,276.0,116.0,292.0" stroke="black" stroke-width="1" fill="none" />
<polyline points="112.0,292.0,128.0,276.0" stroke="black" stroke-width="1" fill="none" />
<polyline points="124.0,276.0,108.0,292.0" stroke="black" stroke-width="1" fill="none" />
<polyline points="108.0,291.0,164.0,291.0" stroke="black" stroke-width="1" fill="none" />
<polyline points="128.0,301.0,384.0,301.0" stroke="black" stroke-width="1" fill="none" />
<polyline points="124.0,272.0,108.0,288.0" stroke="black" stroke-width="1" fill="none" />
<polyline points="104.0,288.0,120.0,272.0" stroke="black" stroke-width="1" fill="none" />
<polyline points="116.0,272.0,100.0,288.0" stroke="black" stroke-width="1" fill="none" />
<polyline points="100.0,287.0,152.0,287.0" stroke="black" stroke-width="1" fill="none" />
<polyline points="112.0,293.0,192.0,293.0" stroke="black" stroke-width="1" fill="none" />
<polyline points="116.0,268.0,100.0,284.0" stroke="black" stroke-width="1" fill="none" />
<polyline points="96.0,284.0,112.0,268.0" stroke="black" stroke-width="1" fill="none" />
<polyline points="108.0,268.0,92.0,284.0" stroke="black" stroke-width="1" fill="none" />
<polyline points="92.0,280.0,108.0,264.0" stroke="black" stroke-width="1" fill="none" />
<polyline points="96.0,260.0,80.0,276.0" stroke="black" stroke-width="1" fill="none" />
<polyline points="80.0,275.0,124.0,275.0" stroke="black" stroke-width="1" fill="none" />
<polyline points="104.0,289.0,172.0,289.0" stroke="black" stroke-width="1" fill="none" />
<polyline points="160.0,285.0,96.0,285.0" stroke="black" stroke-width="1" fill="none" />
<polyline points="96.0,283.0,140.0,283.0" stroke="black" stroke-width="1" fill="none" />
<polyline points="96.0,256.0,80.0,272.0" stroke="black" stroke-width="1" fill="none" />
<polyline points="76.0,272.0,92.0,256.0" stroke="black" stroke-width="1" fill="none" />
<polyline points="92.0,252.0,72.0,272.0" stroke="black" stroke-width="1" fill="none" />
<polyline points="72.0,269.0,120.0,269.0" stroke="black" stroke-width="1" fill="none" />
<polyline points="148.0,281.0,88.0,281.0" stroke="black" stroke-width="1" fill="none" />
<polyline points="80.0,277.0,136.0,277.0" stroke="black" stroke-width="1" fill="none" />
<polyline points="88.0,252.0,72.0,268.0" stroke="black" stroke-width="1" fill="none" />
<polyline points="72.0,267.0,108.0,267.0" stroke="black" stroke-width="1" fill="none" />
<polyline points="84.0,252.0,68.0,268.0" stroke="black" stroke-width="1" fill="none" />
<polyline points="68.0,264.0,84.0,248.0" stroke="black" stroke-width="1" fill="none" />
<polyline points="80.0,244.0,64.0,260.0" stroke="black" stroke-width="1" fill="none" />
<polyline points="60.0,260.0,76.0,244.0" stroke="black" stroke-width="1" fill="none" />
<polyline points="76.0,240.0,60.0,256.0" stroke="black" stroke-width="1" fill="none" />
<polyline points="60.0,259.0,96.0,259.0" stroke="black" stroke-width="1" fill="none" />
<polyline points="76.0,271.0,116.0,271.0" stroke="black" stroke-width="1" fill="none" />
<polyline points="128.0,273.0,76.0,273.0" stroke="black" stroke-width="1" fill="none" />
<polyline points="64.0,265.0,112.0,265.0" stroke="black" stroke-width="1" fill="none" />
<polyline points="72.0,240.0,56.0,256.0" stroke="black" stroke-width="1" fill="none" />
<polyline points="56.0,255.0,88.0,255.0" stroke="black" stroke-width="1" fill="none" />
<polyline points="72.0,236.0,56.0,252.0" stroke="black" stroke-width="1" fill="none" />
<polyline points="52.0,252.0,68.0,236.0" stroke="black" stroke-width="1" fill="none" />
<polyline points="68.0,232.0,52.0,248.0" stroke="black" stroke-width="1" fill="none" />
<polyline points="52.0,251.0,84.0,251.0" stroke="black" stroke-width="1" fill="none" />
<polyline points="104.0,261.0,60.0,261.0" stroke="black" stroke-width="1" fill="none" />
<polyline points="56.0,257.0,100.0,257.0" stroke="black" stroke-width="1" fill="none" />
<polyline points="64.0,228.0,48.0,244.0" stroke="black" stroke-width="1" fill="none" />
<polyline points="44.0,244.0,60.0,228.0" stroke="black" stroke-width="1" fill="none" />
<polyline points="60.0,224.0,44.0,240.0" stroke="black" stroke-width="1" fill="none" />
<polyline points="44.0,243.0,76.0,243.0" stroke="black" stroke-width="1" fill="none" />
<polyline points="92.0,253.0,52.0,253.0" stroke="black" stroke-width="1" fill="none" />
<polyline points="48.0,249.0,88.0,249.0" stroke="black" stroke-width="1" fill="none" />
<polyline points="56.0,224.0,40.0,240.0" stroke="black" stroke-width="1" fill="none" />
<polyline points="40.0,239.0,72.0,239.0" stroke="black" stroke-width="1" fill="none" />
<polyline points="56.0,220.0,40.0,236.0" stroke="black" stroke-width="1" fill="none" />
<polyline points="40.0,235.0,68.0,235.0" stroke="black" stroke-width="1" fill="none" />
<polyline points="56.0,216.0,36.0,236.0" stroke="black" stroke-width="1" fill="none" />
<polyline points="36.0,237.0,72.0,237.0" stroke="black" stroke-width="1" fill="none" />
<polyline points="84.0,245.0,44.0,245.0" stroke="black" stroke-width="1" fill="none" />
<polyline points="40.0,241.0,76.0,241.0" stroke="black" stroke-width="1" fill="none" />
<polyline points="52.0,212.0,32.0,232.0" stroke="black" stroke-width="1" fill="none" />
<polyline points="32.0,229.0,64.0,229.0" stroke="black" stroke-width="1" fill="none" />
<polyline points="52.0,208.0,32.0,228.0" stroke="black" stroke-width="1" fill="none" />
<polyline points="32.0,227.0,60.0,227.0" stroke="black" stroke-width="1" fill="none" />
<polyline points="48.0,208.0,32.0,224.0" stroke="black" stroke-width="1" fill="none" />
<polyline points="32.0,223.0,56.0,223.0" stroke="black" stroke-width="1" fill="none" />
<polyline points="48.0,204.0,28.0,224.0" stroke="black" stroke-width="1" fill="none" />
<polyline points="28.0,225.0,64.0,225.0" stroke="black" stroke-width="1" fill="none" />
<polyline points="68.0,233.0,36.0,233.0" stroke="black" stroke-width="1" fill="none" />
<polyline points="28.0,221.0,60.0,221.0" stroke="black" stroke-width="1" fill="none" />
<polyline points="48.0,200.0,28.0,220.0" stroke="black" stroke-width="1" fill="none" />
<polyline points="28.0,219.0,52.0,219.0" stroke="black" stroke-width="1" fill="none" />
<polyline points="44.0,200.0,28.0,216.0" stroke="black" stroke-width="1" fill="none" />
<polyline points="24.0,217.0,56.0,217.0" stroke="black" stroke-width="1" fill="none" />
<polyline points="44.0,192.0,24.0,212.0" stroke="black" stroke-width="1" fill="none" />
<polyline points="24.0,211.0,48.0,211.0" stroke="black" stroke-width="1" fill="none" />
<polyline points="40.0,192.0,24.0,208.0" stroke="black" stroke-width="1" fill="none" />
<polyline points="24.0,207.0,48.0,207.0" stroke="black" stroke-width="1" fill="none" />
<polyline points="40.0,188.0,20.0,208.0" stroke="black" stroke-width="1" fill="none" />
<polyline points="20.0,209.0,52.0,209.0" stroke="black" stroke-width="1" fill="none" />
<polyline points="40.0,184.0,20.0,204.0" stroke="black" stroke-width="1" fill="none" />
<polyline points="20.0,203.0,44.0,203.0" stroke="black" stroke-width="1" fill="none" />
<polyline points="52.0,213.0,24.0,213.0" stroke="black" stroke-width="1" fill="none" />
<polyline points="20.0,205.0,48.0,205.0" stroke="black" stroke-width="1" fill="none" />
<polyline points="40.0,180.0,20.0,200.0" stroke="black" stroke-width="1" fill="none" />
<polyline points="20.0,199.0,44.0,199.0" stroke="black" stroke-width="1" fill="none" />
<polyline points="40.0,176.0,16.0,200.0" stroke="black" stroke-width="1" fill="none" />
<polyline points="16.0,201.0,48.0,201.0" stroke="black" stroke-width="1" fill="none" />
<polyline points="40.0,195.0,20.0,195.0" stroke="black" stroke-width="1" fill="none" />
<polyline points="16.0,193.0,44.0,193.0" stroke="black" stroke-width="1" fill="none" />
<polyline points="40.0,168.0,16.0,192.0" stroke="black" stroke-width="1" fill="none" />
<polyline points="16.0,191.0,40.0,191.0" stroke="black" stroke-width="1" fill="none" />
<polyline points="16.0,188.0,40.0,164.0" stroke="black" stroke-width="1" fill="none" />
<polyline points="40.0,160.0,16.0,184.0" stroke="black" stroke-width="1" fill="none" />
<polyline points="16.0,183.0,40.0,183.0" stroke="black" stroke-width="1" fill="none" />
<polyline points="16.0,180.0,40.0,156.0" stroke="black" stroke-width="1" fill="none" />
<polyline points="40.0,152.0,12.0,180.0" stroke="black" stroke-width="1" fill="none" />
<polyline points="12.0,181.0,40.0,181.0" stroke="black" stroke-width="1" fill="none" />
<polyline points="40.0,187.0,16.0,187.0" stroke="black" stroke-width="1" fill="none" />
<polyline points="12.0,185.0,44.0,185.0" stroke="black" stroke-width="1" fill="none" />
<polyline points="40.0,179.0,16.0,179.0" stroke="black" stroke-width="1" fill="none" />
<polyline points="16.0,175.0,36.0,175.0" stroke="black" stroke-width="1" fill="none" />
<polyline points="36.0,171.0,16.0,171.0" stroke="black" stroke-width="1" fill="none" />
<polyline points="16.0,167.0,36.0,167.0" stroke="black" stroke-width="1" fill="none" />
<polyline points="40.0,148.0,12.0,176.0" stroke="black" stroke-width="1" fill="none" />
<polyline points="12.0,177.0,40.0,177.0" stroke="black" stroke-width="1" fill="none" />
<polyline points="36.0,163.0,16.0,163.0" stroke="black" stroke-width="1" fill="none" />
<polyline points="16.0,159.0,36.0,159.0" stroke="black" stroke-width="1" fill="none" />
<polyline points="40.0,155.0,16.0,155.0" stroke="black" stroke-width="1" fill="none" />
<polyline points="16.0,151.0,40.0,151.0" stroke="black" stroke-width="1" fill="none" />
<polyline points="44.0,136.0,12.0,168.0" stroke="black" stroke-width="1" fill="none" />
<polyline points="12.0,169.0,40.0,169.0" stroke="black" stroke-width="1" fill="none" />
<polyline points="40.0,147.0,16.0,147.0" stroke="black" stroke-width="1" fill="none" />
<polyline points="16.0,148.0,136.0,28.0" stroke="black" stroke-width="1" fill="none" />
<polyline points="136.0,31.0,236.0,31.0" stroke="black" stroke-width="1" fill="none" />
<polyline points="148.0,27.0,364.0,27.0" stroke="black" stroke-width="1" fill="none" />
<polyline points="356.0,119.0,148.0,119.0" stroke="black" stroke-width="1" fill="none" />
<polyline points="144.0,117.0,360.0,117.0" stroke="black" stroke-width="1" fill="none" />
<polyline points="360.0,123.0,144.0,123.0" stroke="black" stroke-width="1" fill="none" />
<polyline points="144.0,121.0,360.0,121.0" stroke="black" stroke-width="1" fill="none" />
<polyline points="492.0,131.0,140.0,131.0" stroke="black" stroke-width="1" fill="none" />
<polyline points="136.0,129.0,496.0,129.0" stroke="black" stroke-width="1" fill="none" />
<polyline points="492.0,125.0,140.0,125.0" stroke="black" stroke-width="1" fill="none" />
<polyline points="136.0,133.0,496.0,133.0" stroke="black" stroke-width="1" fill="none" />
<polyline points="216.0,193.0,136.0,193.0" stroke="black" stroke-width="1" fill="none" />
<polyline points="136.0,191.0,212.0,191.0" stroke="black" stroke-width="1" fill="none" />
<polyline points="216.0,189.0,136.0,189.0" stroke="black" stroke-width="1" fill="none" />
<polyline points="132.0,185.0,216.0,185.0" stroke="black" stroke-width="1" fill="none" />
<polyline points="212.0,183.0,132.0,183.0" stroke="black" stroke-width="1" fill="none" />
<polyline points="132.0,181.0,216.0,181.0" stroke="black" stroke-width="1" fill="none" />
<polyline points="212.0,167.0,132.0,167.0" stroke="black" stroke-width="1" fill="none" />
<polyline points="132.0,163.0,212.0,163.0" stroke="black" stroke-width="1" fill="none" />
<polyline points="136.0,139.0,496.0,139.0" stroke="black" stroke-width="1" fill="none" />
<polyline points="492.0,135.0,136.0,135.0" stroke="black" stroke-width="1" fill="none" />
<polyline points="132.0,137.0,496.0,137.0" stroke="black" stroke-width="1" fill="none" />
<polyline points="216.0,159.0,132.0,159.0" stroke="black" stroke-width="1" fill="none" />
<polyline points="132.0,155.0,496.0,155.0" stroke="black" stroke-width="1" fill="none" />
<polyline points="496.0,151.0,132.0,151.0" stroke="black" stroke-width="1" fill="none" />
<polyline points="128.0,149.0,500.0,149.0" stroke="black" stroke-width="1" fill="none" />
<polyline points="216.0,177.0,128.0,177.0" stroke="black" stroke-width="1" fill="none" />
<polyline points="128.0,153.0,500.0,153.0" stroke="black" stroke-width="1" fill="none" />
<polyline points="500.0,145.0,128.0,145.0" stroke="black" stroke-width="1" fill="none" />
<polyline points="56.0,112.0,12.0,156.0" stroke="black" stroke-width="1" fill="none" />
<polyline points="12.0,157.0,40.0,157.0" stroke="black" stroke-width="1" fill="none" />
<polyline points="16.0,144.0,128.0,32.0" stroke="black" stroke-width="1" fill="none" />
<polyline points="128.0,29.0,384.0,29.0" stroke="black" stroke-width="1" fill="none" />
<polyline points="200.0,35.0,128.0,35.0" stroke="black" stroke-width="1" fill="none" />
<polyline points="120.0,36.0,16.0,140.0" stroke="black" stroke-width="1" fill="none" />
<polyline points="16.0,139.0,40.0,139.0" stroke="black" stroke-width="1" fill="none" />
<polyline points="48.0,128.0,12.0,164.0" stroke="black" stroke-width="1" fill="none" />
<polyline points="12.0,165.0,40.0,165.0" stroke="black" stroke-width="1" fill="none" />
<polyline points="40.0,143.0,16.0,143.0" stroke="black" stroke-width="1" fill="none" />
<polyline points="12.0,145.0,44.0,145.0" stroke="black" stroke-width="1" fill="none" />
<polyline points="48.0,127.0,24.0,127.0" stroke="black" stroke-width="1" fill="none" />
<polyline points="24.0,123.0,48.0,123.0" stroke="black" stroke-width="1" fill="none" />
<polyline points="52.0,120.0,12.0,160.0" stroke="black" stroke-width="1" fill="none" />
<polyline points="12.0,161.0,40.0,161.0" stroke="black" stroke-width="1" fill="none" />
<polyline points="44.0,135.0,20.0,135.0" stroke="black" stroke-width="1" fill="none" />
<polyline points="20.0,131.0,44.0,131.0" stroke="black" stroke-width="1" fill="none" />
<polyline points="52.0,115.0,28.0,115.0" stroke="black" stroke-width="1" fill="none" />
<polyline points="28.0,112.0,88.0,52.0" stroke="black" stroke-width="1" fill="none" />
<polyline points="88.0,49.0,148.0,49.0" stroke="black" stroke-width="1" fill="none" />
<polyline points="120.0,33.0,216.0,33.0" stroke="black" stroke-width="1" fill="none" />
<polyline points="180.0,39.0,116.0,39.0" stroke="black" stroke-width="1" fill="none" />
<polyline points="112.0,40.0,16.0,136.0" stroke="black" stroke-width="1" fill="none" />
<polyline points="16.0,137.0,44.0,137.0" stroke="black" stroke-width="1" fill="none" />
<polyline points="20.0,128.0,108.0,40.0" stroke="black" stroke-width="1" fill="none" />
<polyline points="108.0,37.0,192.0,37.0" stroke="black" stroke-width="1" fill="none" />
<polyline points="164.0,43.0,108.0,43.0" stroke="black" stroke-width="1" fill="none" />
<polyline points="104.0,41.0,172.0,41.0" stroke="black" stroke-width="1" fill="none" />
<polyline points="152.0,47.0,100.0,47.0" stroke="black" stroke-width="1" fill="none" />
<polyline points="96.0,48.0,24.0,120.0" stroke="black" stroke-width="1" fill="none" />
<polyline points="24.0,119.0,52.0,119.0" stroke="black" stroke-width="1" fill="none" />
<polyline points="64.0,103.0,36.0,103.0" stroke="black" stroke-width="1" fill="none" />
<polyline points="32.0,104.0,76.0,60.0" stroke="black" stroke-width="1" fill="none" />
<polyline points="76.0,57.0,128.0,57.0" stroke="black" stroke-width="1" fill="none" />
<polyline points="96.0,45.0,160.0,45.0" stroke="black" stroke-width="1" fill="none" />
<polyline points="140.0,51.0,92.0,51.0" stroke="black" stroke-width="1" fill="none" />
<polyline points="88.0,55.0,132.0,55.0" stroke="black" stroke-width="1" fill="none" />
<polyline points="120.0,59.0,80.0,59.0" stroke="black" stroke-width="1" fill="none" />
<polyline points="76.0,63.0,116.0,63.0" stroke="black" stroke-width="1" fill="none" />
<polyline points="136.0,53.0,80.0,53.0" stroke="black" stroke-width="1" fill="none" />
<polyline points="72.0,61.0,120.0,61.0" stroke="black" stroke-width="1" fill="none" />
<polyline points="108.0,67.0,72.0,67.0" stroke="black" stroke-width="1" fill="none" />
<polyline points="64.0,65.0,112.0,65.0" stroke="black" stroke-width="1" fill="none" />
<polyline points="100.0,71.0,64.0,71.0" stroke="black" stroke-width="1" fill="none" />
<polyline points="60.0,69.0,104.0,69.0" stroke="black" stroke-width="1" fill="none" />
<polyline points="96.0,75.0,60.0,75.0" stroke="black" stroke-width="1" fill="none" />
<polyline points="56.0,73.0,100.0,73.0" stroke="black" stroke-width="1" fill="none" />
<polyline points="88.0,79.0,56.0,79.0" stroke="black" stroke-width="1" fill="none" />
<polyline points="52.0,77.0,92.0,77.0" stroke="black" stroke-width="1" fill="none" />
<polyline points="84.0,83.0,52.0,83.0" stroke="black" stroke-width="1" fill="none" />
<polyline points="48.0,81.0,88.0,81.0" stroke="black" stroke-width="1" fill="none" />
<polyline points="80.0,87.0,48.0,87.0" stroke="black" stroke-width="1" fill="none" />
<polyline points="44.0,85.0,84.0,85.0" stroke="black" stroke-width="1" fill="none" />
<polyline points="76.0,91.0,44.0,91.0" stroke="black" stroke-width="1" fill="none" />
<polyline points="40.0,89.0,76.0,89.0" stroke="black" stroke-width="1" fill="none" />
<polyline points="68.0,99.0,40.0,99.0" stroke="black" stroke-width="1" fill="none" />
<polyline points="40.0,95.0,72.0,95.0" stroke="black" stroke-width="1" fill="none" />
<polyline points="68.0,97.0,36.0,97.0" stroke="black" stroke-width="1" fill="none" />
<polyline points="36.0,93.0,72.0,93.0" stroke="black" stroke-width="1" fill="none" />
<polyline points="56.0,111.0,32.0,111.0" stroke="black" stroke-width="1" fill="none" />
<polyline points="32.0,107.0,60.0,107.0" stroke="black" stroke-width="1" fill="none" />
<polyline points="64.0,101.0,32.0,101.0" stroke="black" stroke-width="1" fill="none" />
<polyline points="28.0,105.0,64.0,105.0" stroke="black" stroke-width="1" fill="none" />
<polyline points="60.0,109.0,28.0,109.0" stroke="black" stroke-width="1" fill="none" />
<polyline points="24.0,113.0,56.0,113.0" stroke="black" stroke-width="1" fill="none" />
<polyline points="52.0,117.0,24.0,117.0" stroke="black" stroke-width="1" fill="none" />
<polyline points="20.0,121.0,52.0,121.0" stroke="black" stroke-width="1" fill="none" />
<polyline points="48.0,125.0,20.0,125.0" stroke="black" stroke-width="1" fill="none" />
<polyline points="16.0,129.0,48.0,129.0" stroke="black" stroke-width="1" fill="none" />
<polyline points="44.0,133.0,16.0,133.0" stroke="black" stroke-width="1" fill="none" />
<polyline points="12.0,149.0,40.0,149.0" stroke="black" stroke-width="1" fill="none" />
<polyline points="40.0,153.0,12.0,153.0" stroke="black" stroke-width="1" fill="none" />
<polyline points="12.0,189.0,44.0,189.0" stroke="black" stroke-width="1" fill="none" />
</svg>