<svg xmlns="http://www.w3.org/2000/svg" height="345px" width="511px" version="1.1"><polyline points="1.0,0.0,1.0,8.0,1.0,16.0,1.0,24.0,1.0,32.0,1.0,40.0,1.0,48.0,1.0,56.0,1.0,64.0,1.0,72.0,1.0,80.0,1.0,88.0,1.0,96.0,1.0,104.0,1.0,112.0,1.0,120.0,1.0,128.0,1.0,136.0,1.0,144.0,1.0,152.0,1.0,160.0,1.0,168.0,1.0,176.0,1.0,184.0,1.0,192.0,1.0,200.0,1.0,208.0,1.0,216.0,1.0,224.0,1.0,232.0,1.0,240.0,1.0,248.0,1.0,256.0,1.0,264.0,1.0,272.0,1.0,280.0,1.0,288.0,1.0,296.0,1.0,304.0,1.0,312.0,1.0,320.0,1.0,328.0,1.0,336.0,1.0,344.0,9.0,345.0,17.0,345.0,25.0,345.0,33.0,345.0,41.0,345.0,49.0,345.0,57.0,345.0,65.0,345.0,73.0,345.0,81.0,345.0,89.0,345.0,97.0,345.0,105.0,345.0,113.0,345.0,121.0,335.0,129.0,322.0" stroke="black" stroke-width="1" fill="none" />
<polyline points="129.0,311.0,132.0,319.0,125.0,327.0,121.0,335.0,118.0,343.0,127.0,345.0,135.0,345.0" stroke="black" stroke-width="1" fill="none" />
<polyline points="150.0,325.0,158.0,324.0" stroke="black" stroke-width="1" fill="none" />
<polyline points="151.0,322.0,159.0,321.0,167.0,320.0" stroke="black" stroke-width="1" fill="none" />
<polyline points="170.0,323.0,178.0,320.0,186.0,317.0,182.0,325.0" stroke="black" stroke-width="1" fill="none" />
<polyline points="179.0,337.0,171.0,345.0" stroke="black" stroke-width="1" fill="none" />
<polyline points="174.0,341.0,164.0,345.0,166.0,335.0,165.0,327.0,170.0,317.0,180.0,315.0,185.0,312.0,183.0,304.0" stroke="black" stroke-width="1" fill="none" />
<polyline points="189.0,300.0,192.0,308.0,186.0,314.0,171.0,321.0,180.0,324.0,175.0,330.0,172.0,333.0,178.0,328.0,184.0,316.0" stroke="black" stroke-width="1" fill="none" />
<polyline points="195.0,306.0,187.0,297.0" stroke="black" stroke-width="1" fill="none" />
<polyline points="189.0,294.0,179.0,302.0,169.0,310.0,153.0,317.0,149.0,318.0,142.0,327.0,139.0,337.0" stroke="black" stroke-width="1" fill="none" />
<polyline points="125.0,273.0,117.0,264.0" stroke="black" stroke-width="1" fill="none" />
<polyline points="109.0,246.0,98.0,250.0,107.0,247.0" stroke="black" stroke-width="1" fill="none" />
<polyline points="86.0,252.0,94.0,271.0" stroke="black" stroke-width="1" fill="none" />
<polyline points="132.0,240.0,114.0,251.0,122.0,242.0,130.0,238.0,138.0,236.0,146.0,236.0" stroke="black" stroke-width="1" fill="none" />
<polyline points="147.0,240.0,149.0,248.0,143.0,251.0,148.0,254.0" stroke="black" stroke-width="1" fill="none" />
<polyline points="133.0,237.0,118.0,245.0,114.0,253.0,114.0,261.0,117.0,269.0" stroke="black" stroke-width="1" fill="none" />
<polyline points="108.0,213.0,100.0,205.0,92.0,205.0,84.0,214.0" stroke="black" stroke-width="1" fill="none" />
<polyline points="92.0,205.0,85.0,213.0,83.0,221.0,81.0,229.0,81.0,237.0,82.0,245.0,83.0,253.0,86.0,261.0,89.0,269.0,93.0,277.0,96.0,285.0,97.0,293.0,102.0,301.0,106.0,309.0,111.0,308.0,119.0,308.0,127.0,308.0,135.0,311.0,146.0,318.0,154.0,316.0,164.0,312.0,172.0,309.0,180.0,301.0,188.0,295.0,193.0,296.0" stroke="black" stroke-width="1" fill="none" />
<polyline points="253.0,325.0,256.0,331.0,260.0,332.0,262.0,340.0,267.0,340.0,274.0,345.0" stroke="black" stroke-width="1" fill="none" />
<polyline points="273.0,335.0,281.0,332.0" stroke="black" stroke-width="1" fill="none" />
<polyline points="281.0,333.0,279.0,325.0" stroke="black" stroke-width="1" fill="none" />
<polyline points="271.0,320.0,279.0,319.0,287.0,320.0,295.0,327.0" stroke="black" stroke-width="1" fill="none" />
<polyline points="293.0,331.0,285.0,330.0,278.0,315.0,270.0,320.0,268.0,315.0,260.0,317.0,259.0,330.0" stroke="black" stroke-width="1" fill="none" />
<polyline points="262.0,335.0,270.0,331.0,276.0,322.0,271.0,330.0,273.0,339.0,275.0,342.0,279.0,334.0,283.0,345.0" stroke="black" stroke-width="1" fill="none" />
<polyline points="286.0,340.0,295.0,330.0,289.0,322.0" stroke="black" stroke-width="1" fill="none" />
<polyline points="293.0,319.0,300.0,327.0,299.0,335.0,298.0,343.0,293.0,343.0" stroke="black" stroke-width="1" fill="none" />
<polyline points="323.0,335.0,315.0,313.0" stroke="black" stroke-width="1" fill="none" />
<polyline points="313.0,307.0,321.0,324.0" stroke="black" stroke-width="1" fill="none" />
<polyline points="318.0,304.0,319.0,320.0,320.0,328.0,322.0,328.0,323.0,336.0,325.0,344.0,334.0,345.0,342.0,345.0,350.0,345.0,358.0,345.0,366.0,345.0,374.0,345.0,382.0,345.0,390.0,345.0,398.0,345.0,406.0,345.0,414.0,345.0,422.0,345.0,430.0,345.0,438.0,345.0,446.0,345.0,454.0,345.0,462.0,345.0,470.0,345.0,478.0,345.0,486.0,345.0,494.0,345.0,502.0,345.0,510.0,345.0" stroke="black" stroke-width="1" fill="none" />
<polyline points="324.0,328.0,322.0,320.0,319.0,312.0,316.0,309.0,315.0,303.0,315.0,295.0,314.0,287.0,313.0,279.0,312.0,272.0" stroke="black" stroke-width="1" fill="none" />
<polyline points="309.0,245.0,301.0,246.0,293.0,247.0,285.0,247.0,277.0,248.0,269.0,247.0,261.0,245.0,253.0,243.0,244.0,237.0,236.0,232.0" stroke="black" stroke-width="1" fill="none" />
<polyline points="239.0,232.0,252.0,240.0" stroke="black" stroke-width="1" fill="none" />
<polyline points="257.0,243.0,249.0,238.0,241.0,233.0,233.0,228.0" stroke="black" stroke-width="1" fill="none" />
<polyline points="233.0,228.0,241.0,236.0,254.0,244.0,268.0,249.0,277.0,250.0" stroke="black" stroke-width="1" fill="none" />
<polyline points="272.0,292.0,270.0,300.0,270.0,308.0,263.0,316.0,254.0,324.0,253.0,332.0,254.0,340.0,259.0,345.0" stroke="black" stroke-width="1" fill="none" />
<polyline points="294.0,318.0,286.0,315.0,281.0,310.0,281.0,302.0,281.0,294.0" stroke="black" stroke-width="1" fill="none" />
<polyline points="318.0,218.0,310.0,223.0,302.0,224.0,294.0,222.0,286.0,216.0,278.0,202.0" stroke="black" stroke-width="1" fill="none" />
<polyline points="286.0,196.0,294.0,194.0,302.0,193.0" stroke="black" stroke-width="1" fill="none" />
<polyline points="307.0,176.0,315.0,177.0" stroke="black" stroke-width="1" fill="none" />
<polyline points="319.0,167.0,311.0,171.0,303.0,166.0" stroke="black" stroke-width="1" fill="none" />
<polyline points="295.0,171.0,303.0,181.0,311.0,183.0,318.0,185.0,324.0,188.0" stroke="black" stroke-width="1" fill="none" />
<polyline points="299.0,190.0,291.0,192.0,283.0,193.0" stroke="black" stroke-width="1" fill="none" />
<polyline points="273.0,188.0,281.0,190.0,289.0,187.0,297.0,185.0,305.0,185.0" stroke="black" stroke-width="1" fill="none" />
<polyline points="312.0,158.0,311.0,153.0,310.0,160.0,313.0,152.0" stroke="black" stroke-width="1" fill="none" />
<polyline points="313.0,145.0,324.0,153.0,326.0,161.0,320.0,165.0,323.0,169.0,318.0,174.0,323.0,171.0" stroke="black" stroke-width="1" fill="none" />
<polyline points="331.0,142.0,323.0,136.0" stroke="black" stroke-width="1" fill="none" />
<polyline points="322.0,138.0,332.0,146.0,336.0,154.0,338.0,162.0,337.0,170.0" stroke="black" stroke-width="1" fill="none" />
<polyline points="331.0,137.0,323.0,133.0,315.0,135.0" stroke="black" stroke-width="1" fill="none" />
<polyline points="306.0,144.0,314.0,143.0,322.0,147.0" stroke="black" stroke-width="1" fill="none" />
<polyline points="331.0,139.0,317.0,132.0,309.0,137.0,301.0,146.0" stroke="black" stroke-width="1" fill="none" />
<polyline points="304.0,143.0,300.0,151.0,300.0,159.0,301.0,167.0,304.0,175.0,316.0,183.0,326.0,193.0,327.0,201.0,325.0,209.0,319.0,217.0" stroke="black" stroke-width="1" fill="none" />
<polyline points="334.0,220.0,332.0,225.0,338.0,217.0" stroke="black" stroke-width="1" fill="none" />
<polyline points="269.0,202.0,261.0,202.0" stroke="black" stroke-width="1" fill="none" />
<polyline points="247.0,173.0,239.0,184.0,229.0,183.0,230.0,185.0,220.0,177.0,218.0,169.0,219.0,161.0,224.0,153.0,223.0,159.0" stroke="black" stroke-width="1" fill="none" />
<polyline points="227.0,159.0,235.0,156.0,243.0,156.0" stroke="black" stroke-width="1" fill="none" />
<polyline points="242.0,158.0,237.0,159.0,236.0,167.0,237.0,159.0" stroke="black" stroke-width="1" fill="none" />
<polyline points="239.0,152.0,250.0,160.0,246.0,163.0,246.0,171.0,242.0,180.0" stroke="black" stroke-width="1" fill="none" />
<polyline points="246.0,177.0,251.0,170.0,250.0,156.0,242.0,151.0,234.0,149.0,226.0,152.0,218.0,162.0" stroke="black" stroke-width="1" fill="none" />
<polyline points="208.0,161.0,216.0,146.0,224.0,140.0,232.0,138.0" stroke="black" stroke-width="1" fill="none" />
<polyline points="227.0,139.0,215.0,147.0,210.0,155.0,208.0,163.0,209.0,171.0,210.0,179.0,217.0,187.0" stroke="black" stroke-width="1" fill="none" />
<polyline points="211.0,176.0,219.0,187.0,227.0,189.0,235.0,189.0" stroke="black" stroke-width="1" fill="none" />
<polyline points="240.0,177.0,232.0,177.0,224.0,176.0,225.0,172.0,225.0,164.0,229.0,156.0" stroke="black" stroke-width="1" fill="none" />
<polyline points="227.0,142.0,216.0,150.0,220.0,146.0,228.0,142.0,236.0,141.0,242.0,142.0,249.0,145.0,254.0,150.0" stroke="black" stroke-width="1" fill="none" />
<polyline points="245.0,145.0,254.0,153.0,257.0,161.0,258.0,169.0" stroke="black" stroke-width="1" fill="none" />
<polyline points="272.0,126.0,274.0,134.0,274.0,142.0,276.0,150.0,275.0,158.0,276.0,166.0,275.0,174.0,273.0,182.0,272.0,190.0,275.0,198.0,274.0,206.0,281.0,213.0,289.0,221.0" stroke="black" stroke-width="1" fill="none" />
<polyline points="224.0,271.0,216.0,265.0,208.0,261.0,200.0,255.0,192.0,250.0,184.0,242.0,176.0,227.0" stroke="black" stroke-width="1" fill="none" />
<polyline points="167.0,208.0,169.0,216.0,172.0,224.0,175.0,232.0,179.0,240.0,187.0,248.0,198.0,256.0,211.0,264.0,223.0,272.0,226.0,279.0,232.0,287.0,235.0,286.0,243.0,288.0,251.0,289.0,259.0,290.0,267.0,291.0,275.0,289.0,281.0,291.0,289.0,290.0,297.0,288.0,305.0,282.0,313.0,264.0,321.0,256.0,329.0,248.0,337.0,240.0,345.0,232.0,353.0,222.0" stroke="black" stroke-width="1" fill="none" />
<polyline points="335.0,111.0,327.0,106.0" stroke="black" stroke-width="1" fill="none" />
<polyline points="328.0,102.0,341.0,110.0,343.0,118.0,345.0,126.0,345.0,134.0,346.0,142.0,346.0,150.0,347.0,158.0,349.0,166.0,350.0,174.0,352.0,182.0,354.0,190.0,357.0,198.0,358.0,206.0,357.0,214.0,353.0,222.0,347.0,230.0,339.0,238.0,331.0,246.0,323.0,254.0,315.0,262.0,310.0,270.0,306.0,278.0,300.0,286.0" stroke="black" stroke-width="1" fill="none" />
<polyline points="324.0,180.0,315.0,184.0,298.0,180.0,293.0,172.0,292.0,164.0,290.0,157.0,289.0,149.0,291.0,141.0,291.0,134.0,294.0,126.0" stroke="black" stroke-width="1" fill="none" />
<polyline points="316.0,111.0,324.0,112.0,332.0,113.0" stroke="black" stroke-width="1" fill="none" />
<polyline points="328.0,102.0,336.0,103.0,344.0,102.0" stroke="black" stroke-width="1" fill="none" />
<polyline points="286.0,66.0,287.0,53.0,284.0,45.0,274.0,40.0" stroke="black" stroke-width="1" fill="none" />
<polyline points="269.0,44.0,267.0,48.0,273.0,56.0,279.0,56.0,287.0,53.0" stroke="black" stroke-width="1" fill="none" />
<polyline points="282.0,64.0,274.0,63.0,266.0,50.0" stroke="black" stroke-width="1" fill="none" />
<polyline points="262.0,49.0,270.0,64.0,278.0,70.0" stroke="black" stroke-width="1" fill="none" />
<polyline points="294.0,52.0,285.0,65.0,272.0,63.0,267.0,55.0,264.0,47.0,262.0,39.0,266.0,31.0,274.0,32.0,266.0,39.0" stroke="black" stroke-width="1" fill="none" />
<polyline points="262.0,35.0,270.0,27.0,278.0,26.0,286.0,26.0,293.0,35.0,298.0,36.0,297.0,44.0,294.0,44.0,290.0,55.0,283.0,63.0" stroke="black" stroke-width="1" fill="none" />
<polyline points="278.0,31.0,286.0,35.0,295.0,32.0" stroke="black" stroke-width="1" fill="none" />
<polyline points="294.0,24.0,286.0,22.0,278.0,21.0,270.0,23.0,262.0,26.0" stroke="black" stroke-width="1" fill="none" />
<polyline points="271.0,22.0,261.0,30.0,257.0,38.0,258.0,46.0,261.0,54.0,265.0,62.0,274.0,70.0" stroke="black" stroke-width="1" fill="none" />
<polyline points="253.0,95.0,261.0,93.0,269.0,91.0,277.0,90.0,285.0,89.0,293.0,88.0,301.0,88.0,309.0,87.0,317.0,87.0,325.0,88.0,333.0,89.0,341.0,93.0,348.0,96.0" stroke="black" stroke-width="1" fill="none" />
<polyline points="337.0,77.0,329.0,74.0,321.0,73.0,313.0,72.0,305.0,72.0,297.0,72.0,289.0,72.0,281.0,73.0,273.0,74.0,265.0,74.0,257.0,75.0,249.0,76.0,241.0,77.0,233.0,78.0,225.0,79.0,217.0,81.0,209.0,83.0,201.0,85.0,193.0,87.0,185.0,84.0,177.0,63.0" stroke="black" stroke-width="1" fill="none" />
<polyline points="167.0,62.0,159.0,49.0,151.0,39.0,143.0,31.0,135.0,26.0,131.0,38.0" stroke="black" stroke-width="1" fill="none" />
<polyline points="138.0,28.0,146.0,36.0,153.0,44.0,159.0,52.0,164.0,60.0,168.0,68.0,170.0,76.0,171.0,84.0,172.0,92.0,173.0,100.0,173.0,108.0,171.0,116.0,169.0,124.0" stroke="black" stroke-width="1" fill="none" />
<polyline points="184.0,136.0,192.0,121.0,200.0,115.0,208.0,113.0,216.0,113.0,222.0,119.0,230.0,118.0,238.0,118.0" stroke="black" stroke-width="1" fill="none" />
<polyline points="205.0,113.0,192.0,121.0,188.0,129.0,184.0,137.0,183.0,145.0,182.0,153.0,183.0,161.0,184.0,169.0,186.0,177.0,188.0,185.0,186.0,193.0,180.0,201.0,175.0,209.0,173.0,212.0,181.0,200.0" stroke="black" stroke-width="1" fill="none" />
<polyline points="169.0,122.0,161.0,128.0,153.0,126.0,145.0,112.0" stroke="black" stroke-width="1" fill="none" />
<polyline points="134.0,115.0,142.0,131.0,150.0,145.0,158.0,166.0" stroke="black" stroke-width="1" fill="none" />
<polyline points="100.0,208.0,107.0,216.0,109.0,224.0" stroke="black" stroke-width="1" fill="none" />
<polyline points="150.0,126.0,146.0,118.0,143.0,112.0,141.0,104.0,140.0,96.0,137.0,89.0,136.0,81.0,135.0,73.0,133.0,65.0,132.0,57.0,132.0,49.0,132.0,41.0,131.0,34.0,135.0,26.0" stroke="black" stroke-width="1" fill="none" />
<polyline points="133.0,12.0,142.0,20.0,151.0,28.0,159.0,36.0,165.0,44.0,170.0,52.0,174.0,60.0,178.0,68.0,181.0,76.0,184.0,84.0,183.0,92.0,188.0,94.0,196.0,94.0,204.0,93.0,212.0,91.0,220.0,89.0,228.0,88.0,236.0,86.0,244.0,85.0,252.0,84.0,260.0,83.0,268.0,83.0,276.0,82.0,284.0,81.0,292.0,81.0,300.0,80.0,308.0,80.0,316.0,80.0,324.0,81.0,332.0,83.0" stroke="black" stroke-width="1" fill="none" />
<polyline points="340.0,40.0,344.0,36.0,348.0,28.0,357.0,24.0,359.0,16.0,361.0,8.0,356.0,4.0,348.0,10.0,340.0,16.0,332.0,24.0,324.0,21.0,316.0,16.0,308.0,12.0,300.0,10.0,292.0,8.0,284.0,7.0,276.0,7.0,268.0,8.0,260.0,9.0,252.0,11.0,244.0,14.0,236.0,17.0,228.0,21.0,220.0,25.0,212.0,29.0,204.0,34.0,196.0,39.0,188.0,45.0,180.0,50.0,172.0,51.0,164.0,39.0,156.0,30.0,148.0,22.0,140.0,15.0,132.0,9.0,124.0,16.0" stroke="black" stroke-width="1" fill="none" />
<polyline points="128.0,9.0,124.0,17.0,123.0,25.0,123.0,33.0,122.0,41.0,122.0,49.0,122.0,57.0,123.0,65.0,123.0,73.0,124.0,81.0,126.0,89.0,127.0,97.0,129.0,105.0,131.0,113.0,134.0,121.0,138.0,129.0,143.0,137.0,148.0,145.0,151.0,153.0,154.0,161.0,157.0,169.0,159.0,177.0,161.0,185.0,163.0,193.0,159.0,201.0,143.0,209.0,127.0,217.0,114.0,225.0,119.0,222.0,127.0,217.0,135.0,213.0,143.0,208.0,151.0,204.0,159.0,201.0" stroke="black" stroke-width="1" fill="none" />
<polyline points="178.0,51.0,190.0,43.0,202.0,35.0,215.0,27.0,231.0,19.0,252.0,11.0" stroke="black" stroke-width="1" fill="none" />
<polyline points="303.0,13.0,320.0,21.0,329.0,29.0" stroke="black" stroke-width="1" fill="none" />
<polyline points="352.0,22.0,353.0,20.0" stroke="black" stroke-width="1" fill="none" />
<polyline points="356.0,28.0,353.0,36.0,351.0,44.0,348.0,52.0,346.0,60.0,344.0,68.0,341.0,76.0,339.0,84.0,343.0,92.0,346.0,99.0" stroke="black" stroke-width="1" fill="none" />
<polyline points="511.0,339.0,511.0,331.0,511.0,323.0,511.0,315.0,511.0,307.0,511.0,299.0,511.0,291.0,511.0,283.0,511.0,275.0,511.0,267.0,511.0,259.0,511.0,251.0,511.0,243.0,511.0,235.0,511.0,227.0,511.0,219.0,511.0,211.0,511.0,203.0,511.0,195.0,511.0,187.0,511.0,179.0,511.0,171.0,511.0,163.0,511.0,155.0,511.0,147.0,511.0,139.0,511.0,131.0,511.0,123.0,511.0,115.0,511.0,107.0,511.0,99.0,511.0,91.0,511.0,83.0,511.0,75.0,511.0,67.0,511.0,59.0,511.0,51.0,511.0,43.0,511.0,35.0,511.0,27.0,511.0,19.0,511.0,11.0,511.0,3.0,504.0,1.0,496.0,1.0,488.0,1.0,480.0,1.0,472.0,1.0,464.0,1.0,456.0,1.0,448.0,1.0,440.0,1.0,432.0,1.0,424.0,1.0,416.0,1.0,408.0,1.0,400.0,1.0,392.0,1.0,384.0,1.0,376.0,1.0,368.0,1.0,360.0,1.0,352.0,1.0,344.0,1.0,336.0,1.0,328.0,1.0,320.0,1.0,312.0,1.0,304.0,1.0,296.0,1.0,288.0,1.0,280.0,1.0,272.0,1.0,264.0,1.0,256.0,1.0,248.0,1.0,240.0,1.0,232.0,1.0,224.0,1.0,216.0,1.0,208.0,1.0,200.0,1.0,192.0,1.0,184.0,1.0,176.0,1.0,168.0,1.0,160.0,1.0,152.0,1.0,144.0,1.0,136.0,1.0,128.0,1.0,120.0,1.0,112.0,1.0,104.0,1.0,96.0,1.0,88.0,1.0,80.0,1.0,72.0,1.0,64.0,1.0,56.0,1.0,48.0,1.0,40.0,1.0,32.0,1.0,24.0,1.0,16.0,1.0,8.0,1.0,0.0,1.0" stroke="black" stroke-width="1" fill="none" />
<polyline points="80.0,226.0,176.0,226.0" stroke="black" stroke-width="1" fill="none" />
<polyline points="176.0,224.0,104.0,296.0" stroke="black" stroke-width="1" fill="none" />
<polyline points="104.0,294.0,248.0,294.0" stroke="black" stroke-width="1" fill="none" />
<polyline points="248.0,288.0,192.0,344.0" stroke="black" stroke-width="1" fill="none" />
<polyline points="200.0,344.0,256.0,288.0" stroke="black" stroke-width="1" fill="none" />
<polyline points="264.0,288.0,208.0,344.0" stroke="black" stroke-width="1" fill="none" />
<polyline points="216.0,344.0,296.0,264.0" stroke="black" stroke-width="1" fill="none" />
<polyline points="288.0,264.0,272.0,280.0" stroke="black" stroke-width="1" fill="none" />
<polyline points="280.0,288.0,288.0,280.0" stroke="black" stroke-width="1" fill="none" />
<polyline points="288.0,288.0,280.0,296.0" stroke="black" stroke-width="1" fill="none" />
<polyline points="280.0,302.0,312.0,302.0" stroke="black" stroke-width="1" fill="none" />
<polyline points="312.0,304.0,288.0,328.0" stroke="black" stroke-width="1" fill="none" />
<polyline points="288.0,330.0,328.0,330.0" stroke="black" stroke-width="1" fill="none" />
<polyline points="320.0,328.0,304.0,344.0" stroke="black" stroke-width="1" fill="none" />
<polyline points="304.0,342.0,320.0,342.0" stroke="black" stroke-width="1" fill="none" />
<polyline points="320.0,336.0,312.0,344.0" stroke="black" stroke-width="1" fill="none" />
<polyline points="304.0,334.0,320.0,334.0" stroke="black" stroke-width="1" fill="none" />
<polyline points="320.0,320.0,296.0,344.0" stroke="black" stroke-width="1" fill="none" />
<polyline points="288.0,344.0,320.0,312.0" stroke="black" stroke-width="1" fill="none" />
<polyline points="320.0,304.0,296.0,328.0" stroke="black" stroke-width="1" fill="none" />
<polyline points="304.0,326.0,320.0,326.0" stroke="black" stroke-width="1" fill="none" />
<polyline points="320.0,318.0,296.0,318.0" stroke="black" stroke-width="1" fill="none" />
<polyline points="280.0,320.0,312.0,288.0" stroke="black" stroke-width="1" fill="none" />
<polyline points="312.0,280.0,280.0,312.0" stroke="black" stroke-width="1" fill="none" />
<polyline points="280.0,310.0,312.0,310.0" stroke="black" stroke-width="1" fill="none" />
<polyline points="312.0,296.0,280.0,328.0" stroke="black" stroke-width="1" fill="none" />
<polyline points="272.0,320.0,264.0,328.0" stroke="black" stroke-width="1" fill="none" />
<polyline points="256.0,328.0,240.0,344.0" stroke="black" stroke-width="1" fill="none" />
<polyline points="232.0,344.0,272.0,304.0" stroke="black" stroke-width="1" fill="none" />
<polyline points="272.0,296.0,224.0,344.0" stroke="black" stroke-width="1" fill="none" />
<polyline points="248.0,344.0,256.0,336.0" stroke="black" stroke-width="1" fill="none" />
<polyline points="288.0,338.0,328.0,338.0" stroke="black" stroke-width="1" fill="none" />
<polyline points="312.0,286.0,304.0,286.0" stroke="black" stroke-width="1" fill="none" />
<polyline points="312.0,272.0,280.0,304.0" stroke="black" stroke-width="1" fill="none" />
<polyline points="288.0,294.0,312.0,294.0" stroke="black" stroke-width="1" fill="none" />
<polyline points="280.0,264.0,264.0,280.0" stroke="black" stroke-width="1" fill="none" />
<polyline points="256.0,280.0,272.0,264.0" stroke="black" stroke-width="1" fill="none" />
<polyline points="264.0,264.0,256.0,272.0" stroke="black" stroke-width="1" fill="none" />
<polyline points="256.0,264.0,248.0,272.0" stroke="black" stroke-width="1" fill="none" />
<polyline points="248.0,264.0,240.0,272.0" stroke="black" stroke-width="1" fill="none" />
<polyline points="232.0,280.0,168.0,344.0" stroke="black" stroke-width="1" fill="none" />
<polyline points="168.0,342.0,176.0,342.0" stroke="black" stroke-width="1" fill="none" />
<polyline points="176.0,344.0,232.0,288.0" stroke="black" stroke-width="1" fill="none" />
<polyline points="240.0,288.0,184.0,344.0" stroke="black" stroke-width="1" fill="none" />
<polyline points="184.0,342.0,248.0,342.0" stroke="black" stroke-width="1" fill="none" />
<polyline points="272.0,310.0,200.0,310.0" stroke="black" stroke-width="1" fill="none" />
<polyline points="200.0,302.0,272.0,302.0" stroke="black" stroke-width="1" fill="none" />
<polyline points="224.0,280.0,192.0,312.0" stroke="black" stroke-width="1" fill="none" />
<polyline points="192.0,306.0,320.0,306.0" stroke="black" stroke-width="1" fill="none" />
<polyline points="304.0,248.0,312.0,240.0" stroke="black" stroke-width="1" fill="none" />
<polyline points="312.0,224.0,328.0,208.0" stroke="black" stroke-width="1" fill="none" />
<polyline points="328.0,200.0,304.0,224.0" stroke="black" stroke-width="1" fill="none" />
<polyline points="296.0,224.0,328.0,192.0" stroke="black" stroke-width="1" fill="none" />
<polyline points="320.0,192.0,288.0,224.0" stroke="black" stroke-width="1" fill="none" />
<polyline points="288.0,216.0,320.0,184.0" stroke="black" stroke-width="1" fill="none" />
<polyline points="312.0,184.0,280.0,216.0" stroke="black" stroke-width="1" fill="none" />
<polyline points="280.0,208.0,304.0,184.0" stroke="black" stroke-width="1" fill="none" />
<polyline points="296.0,184.0,280.0,200.0" stroke="black" stroke-width="1" fill="none" />
<polyline points="280.0,206.0,328.0,206.0" stroke="black" stroke-width="1" fill="none" />
<polyline points="344.0,216.0,336.0,224.0" stroke="black" stroke-width="1" fill="none" />
<polyline points="344.0,224.0,336.0,232.0" stroke="black" stroke-width="1" fill="none" />
<polyline points="328.0,198.0,304.0,198.0" stroke="black" stroke-width="1" fill="none" />
<polyline points="288.0,214.0,320.0,214.0" stroke="black" stroke-width="1" fill="none" />
<polyline points="312.0,222.0,296.0,222.0" stroke="black" stroke-width="1" fill="none" />
<polyline points="272.0,218.0,352.0,218.0" stroke="black" stroke-width="1" fill="none" />
<polyline points="344.0,170.0,336.0,170.0" stroke="black" stroke-width="1" fill="none" />
<polyline points="336.0,162.0,344.0,162.0" stroke="black" stroke-width="1" fill="none" />
<polyline points="344.0,154.0,336.0,154.0" stroke="black" stroke-width="1" fill="none" />
<polyline points="328.0,152.0,312.0,168.0" stroke="black" stroke-width="1" fill="none" />
<polyline points="312.0,160.0,304.0,168.0" stroke="black" stroke-width="1" fill="none" />
<polyline points="304.0,166.0,320.0,166.0" stroke="black" stroke-width="1" fill="none" />
<polyline points="328.0,160.0,312.0,176.0" stroke="black" stroke-width="1" fill="none" />
<polyline points="296.0,176.0,280.0,192.0" stroke="black" stroke-width="1" fill="none" />
<polyline points="280.0,184.0,296.0,168.0" stroke="black" stroke-width="1" fill="none" />
<polyline points="296.0,160.0,280.0,176.0" stroke="black" stroke-width="1" fill="none" />
<polyline points="280.0,174.0,288.0,174.0" stroke="black" stroke-width="1" fill="none" />
<polyline points="280.0,168.0,296.0,152.0" stroke="black" stroke-width="1" fill="none" />
<polyline points="296.0,144.0,280.0,160.0" stroke="black" stroke-width="1" fill="none" />
<polyline points="280.0,158.0,288.0,158.0" stroke="black" stroke-width="1" fill="none" />
<polyline points="280.0,152.0,296.0,136.0" stroke="black" stroke-width="1" fill="none" />
<polyline points="288.0,142.0,280.0,142.0" stroke="black" stroke-width="1" fill="none" />
<polyline points="280.0,144.0,336.0,88.0" stroke="black" stroke-width="1" fill="none" />
<polyline points="328.0,88.0,272.0,144.0" stroke="black" stroke-width="1" fill="none" />
<polyline points="272.0,136.0,320.0,88.0" stroke="black" stroke-width="1" fill="none" />
<polyline points="312.0,88.0,272.0,128.0" stroke="black" stroke-width="1" fill="none" />
<polyline points="272.0,126.0,296.0,126.0" stroke="black" stroke-width="1" fill="none" />
<polyline points="312.0,120.0,344.0,88.0" stroke="black" stroke-width="1" fill="none" />
<polyline points="344.0,96.0,320.0,120.0" stroke="black" stroke-width="1" fill="none" />
<polyline points="328.0,120.0,336.0,112.0" stroke="black" stroke-width="1" fill="none" />
<polyline points="328.0,110.0,320.0,110.0" stroke="black" stroke-width="1" fill="none" />
<polyline points="328.0,128.0,320.0,136.0" stroke="black" stroke-width="1" fill="none" />
<polyline points="320.0,144.0,304.0,160.0" stroke="black" stroke-width="1" fill="none" />
<polyline points="304.0,152.0,312.0,144.0" stroke="black" stroke-width="1" fill="none" />
<polyline points="312.0,150.0,304.0,150.0" stroke="black" stroke-width="1" fill="none" />
<polyline points="288.0,166.0,280.0,166.0" stroke="black" stroke-width="1" fill="none" />
<polyline points="272.0,170.0,328.0,170.0" stroke="black" stroke-width="1" fill="none" />
<polyline points="288.0,150.0,280.0,150.0" stroke="black" stroke-width="1" fill="none" />
<polyline points="280.0,134.0,288.0,134.0" stroke="black" stroke-width="1" fill="none" />
<polyline points="296.0,118.0,272.0,118.0" stroke="black" stroke-width="1" fill="none" />
<polyline points="256.0,136.0,304.0,88.0" stroke="black" stroke-width="1" fill="none" />
<polyline points="296.0,88.0,248.0,136.0" stroke="black" stroke-width="1" fill="none" />
<polyline points="248.0,128.0,288.0,88.0" stroke="black" stroke-width="1" fill="none" />
<polyline points="288.0,94.0,328.0,94.0" stroke="black" stroke-width="1" fill="none" />
<polyline points="320.0,72.0,352.0,40.0" stroke="black" stroke-width="1" fill="none" />
<polyline points="352.0,32.0,312.0,72.0" stroke="black" stroke-width="1" fill="none" />
<polyline points="304.0,72.0,360.0,16.0" stroke="black" stroke-width="1" fill="none" />
<polyline points="360.0,8.0,296.0,72.0" stroke="black" stroke-width="1" fill="none" />
<polyline points="288.0,72.0,328.0,32.0" stroke="black" stroke-width="1" fill="none" />
<polyline points="328.0,24.0,296.0,56.0" stroke="black" stroke-width="1" fill="none" />
<polyline points="296.0,62.0,344.0,62.0" stroke="black" stroke-width="1" fill="none" />
<polyline points="344.0,64.0,336.0,72.0" stroke="black" stroke-width="1" fill="none" />
<polyline points="344.0,72.0,336.0,80.0" stroke="black" stroke-width="1" fill="none" />
<polyline points="328.0,72.0,344.0,56.0" stroke="black" stroke-width="1" fill="none" />
<polyline points="328.0,38.0,320.0,38.0" stroke="black" stroke-width="1" fill="none" />
<polyline points="320.0,24.0,296.0,48.0" stroke="black" stroke-width="1" fill="none" />
<polyline points="296.0,40.0,312.0,24.0" stroke="black" stroke-width="1" fill="none" />
<polyline points="312.0,16.0,296.0,32.0" stroke="black" stroke-width="1" fill="none" />
<polyline points="296.0,24.0,304.0,16.0" stroke="black" stroke-width="1" fill="none" />
<polyline points="296.0,16.0,288.0,24.0" stroke="black" stroke-width="1" fill="none" />
<polyline points="288.0,22.0,312.0,22.0" stroke="black" stroke-width="1" fill="none" />
<polyline points="304.0,30.0,320.0,30.0" stroke="black" stroke-width="1" fill="none" />
<polyline points="312.0,38.0,304.0,38.0" stroke="black" stroke-width="1" fill="none" />
<polyline points="304.0,46.0,328.0,46.0" stroke="black" stroke-width="1" fill="none" />
<polyline points="336.0,54.0,304.0,54.0" stroke="black" stroke-width="1" fill="none" />
<polyline points="288.0,50.0,352.0,50.0" stroke="black" stroke-width="1" fill="none" />
<polyline points="360.0,18.0,336.0,18.0" stroke="black" stroke-width="1" fill="none" />
<polyline points="352.0,10.0,360.0,10.0" stroke="black" stroke-width="1" fill="none" />
<polyline points="288.0,8.0,272.0,24.0" stroke="black" stroke-width="1" fill="none" />
<polyline points="272.0,26.0,360.0,26.0" stroke="black" stroke-width="1" fill="none" />
<polyline points="344.0,70.0,288.0,70.0" stroke="black" stroke-width="1" fill="none" />
<polyline points="272.0,64.0,264.0,72.0" stroke="black" stroke-width="1" fill="none" />
<polyline points="264.0,64.0,256.0,72.0" stroke="black" stroke-width="1" fill="none" />
<polyline points="256.0,56.0,232.0,80.0" stroke="black" stroke-width="1" fill="none" />
<polyline points="240.0,80.0,264.0,56.0" stroke="black" stroke-width="1" fill="none" />
<polyline points="256.0,48.0,224.0,80.0" stroke="black" stroke-width="1" fill="none" />
<polyline points="216.0,80.0,256.0,40.0" stroke="black" stroke-width="1" fill="none" />
<polyline points="264.0,34.0,272.0,34.0" stroke="black" stroke-width="1" fill="none" />
<polyline points="280.0,24.0,288.0,16.0" stroke="black" stroke-width="1" fill="none" />
<polyline points="280.0,8.0,208.0,80.0" stroke="black" stroke-width="1" fill="none" />
<polyline points="208.0,96.0,152.0,152.0" stroke="black" stroke-width="1" fill="none" />
<polyline points="152.0,154.0,184.0,154.0" stroke="black" stroke-width="1" fill="none" />
<polyline points="184.0,152.0,160.0,176.0" stroke="black" stroke-width="1" fill="none" />
<polyline points="160.0,178.0,192.0,178.0" stroke="black" stroke-width="1" fill="none" />
<polyline points="184.0,176.0,168.0,192.0" stroke="black" stroke-width="1" fill="none" />
<polyline points="168.0,194.0,192.0,194.0" stroke="black" stroke-width="1" fill="none" />
<polyline points="184.0,184.0,136.0,232.0" stroke="black" stroke-width="1" fill="none" />
<polyline points="144.0,232.0,176.0,200.0" stroke="black" stroke-width="1" fill="none" />
<polyline points="176.0,216.0,128.0,264.0" stroke="black" stroke-width="1" fill="none" />
<polyline points="120.0,264.0,104.0,280.0" stroke="black" stroke-width="1" fill="none" />
<polyline points="104.0,288.0,120.0,272.0" stroke="black" stroke-width="1" fill="none" />
<polyline points="112.0,278.0,152.0,278.0" stroke="black" stroke-width="1" fill="none" />
<polyline points="160.0,278.0,224.0,278.0" stroke="black" stroke-width="1" fill="none" />
<polyline points="224.0,272.0,192.0,304.0" stroke="black" stroke-width="1" fill="none" />
<polyline points="192.0,296.0,224.0,264.0" stroke="black" stroke-width="1" fill="none" />
<polyline points="216.0,264.0,136.0,344.0" stroke="black" stroke-width="1" fill="none" />
<polyline points="128.0,344.0,216.0,256.0" stroke="black" stroke-width="1" fill="none" />
<polyline points="208.0,256.0,128.0,336.0" stroke="black" stroke-width="1" fill="none" />
<polyline points="128.0,328.0,200.0,256.0" stroke="black" stroke-width="1" fill="none" />
<polyline points="200.0,248.0,136.0,312.0" stroke="black" stroke-width="1" fill="none" />
<polyline points="136.0,310.0,168.0,310.0" stroke="black" stroke-width="1" fill="none" />
<polyline points="168.0,320.0,144.0,344.0" stroke="black" stroke-width="1" fill="none" />
<polyline points="160.0,344.0,168.0,336.0" stroke="black" stroke-width="1" fill="none" />
<polyline points="168.0,328.0,152.0,344.0" stroke="black" stroke-width="1" fill="none" />
<polyline points="152.0,318.0,144.0,318.0" stroke="black" stroke-width="1" fill="none" />
<polyline points="136.0,314.0,176.0,314.0" stroke="black" stroke-width="1" fill="none" />
<polyline points="184.0,314.0,320.0,314.0" stroke="black" stroke-width="1" fill="none" />
<polyline points="352.0,226.0,272.0,226.0" stroke="black" stroke-width="1" fill="none" />
<polyline points="264.0,210.0,360.0,210.0" stroke="black" stroke-width="1" fill="none" />
<polyline points="352.0,202.0,272.0,202.0" stroke="black" stroke-width="1" fill="none" />
<polyline points="272.0,194.0,352.0,194.0" stroke="black" stroke-width="1" fill="none" />
<polyline points="328.0,186.0,272.0,186.0" stroke="black" stroke-width="1" fill="none" />
<polyline points="272.0,178.0,312.0,178.0" stroke="black" stroke-width="1" fill="none" />
<polyline points="328.0,162.0,264.0,162.0" stroke="black" stroke-width="1" fill="none" />
<polyline points="256.0,154.0,328.0,154.0" stroke="black" stroke-width="1" fill="none" />
<polyline points="248.0,152.0,240.0,160.0" stroke="black" stroke-width="1" fill="none" />
<polyline points="240.0,152.0,224.0,168.0" stroke="black" stroke-width="1" fill="none" />
<polyline points="224.0,166.0,232.0,166.0" stroke="black" stroke-width="1" fill="none" />
<polyline points="232.0,168.0,224.0,176.0" stroke="black" stroke-width="1" fill="none" />
<polyline points="224.0,174.0,248.0,174.0" stroke="black" stroke-width="1" fill="none" />
<polyline points="248.0,168.0,240.0,176.0" stroke="black" stroke-width="1" fill="none" />
<polyline points="240.0,168.0,232.0,176.0" stroke="black" stroke-width="1" fill="none" />
<polyline points="224.0,178.0,248.0,178.0" stroke="black" stroke-width="1" fill="none" />
<polyline points="256.0,170.0,224.0,170.0" stroke="black" stroke-width="1" fill="none" />
<polyline points="224.0,160.0,232.0,152.0" stroke="black" stroke-width="1" fill="none" />
<polyline points="224.0,154.0,248.0,154.0" stroke="black" stroke-width="1" fill="none" />
<polyline points="248.0,146.0,344.0,146.0" stroke="black" stroke-width="1" fill="none" />
<polyline points="280.0,88.0,240.0,128.0" stroke="black" stroke-width="1" fill="none" />
<polyline points="232.0,128.0,272.0,88.0" stroke="black" stroke-width="1" fill="none" />
<polyline points="264.0,88.0,224.0,128.0" stroke="black" stroke-width="1" fill="none" />
<polyline points="224.0,120.0,256.0,88.0" stroke="black" stroke-width="1" fill="none" />
<polyline points="248.0,88.0,216.0,120.0" stroke="black" stroke-width="1" fill="none" />
<polyline points="216.0,118.0,240.0,118.0" stroke="black" stroke-width="1" fill="none" />
<polyline points="240.0,102.0,336.0,102.0" stroke="black" stroke-width="1" fill="none" />
<polyline points="352.0,42.0,288.0,42.0" stroke="black" stroke-width="1" fill="none" />
<polyline points="288.0,34.0,352.0,34.0" stroke="black" stroke-width="1" fill="none" />
<polyline points="264.0,16.0,192.0,88.0" stroke="black" stroke-width="1" fill="none" />
<polyline points="192.0,96.0,176.0,112.0" stroke="black" stroke-width="1" fill="none" />
<polyline points="176.0,120.0,200.0,96.0" stroke="black" stroke-width="1" fill="none" />
<polyline points="200.0,110.0,296.0,110.0" stroke="black" stroke-width="1" fill="none" />
<polyline points="240.0,88.0,216.0,112.0" stroke="black" stroke-width="1" fill="none" />
<polyline points="208.0,112.0,224.0,96.0" stroke="black" stroke-width="1" fill="none" />
<polyline points="216.0,96.0,160.0,152.0" stroke="black" stroke-width="1" fill="none" />
<polyline points="160.0,160.0,184.0,136.0" stroke="black" stroke-width="1" fill="none" />
<polyline points="184.0,144.0,160.0,168.0" stroke="black" stroke-width="1" fill="none" />
<polyline points="160.0,170.0,192.0,170.0" stroke="black" stroke-width="1" fill="none" />
<polyline points="184.0,168.0,168.0,184.0" stroke="black" stroke-width="1" fill="none" />
<polyline points="168.0,176.0,184.0,160.0" stroke="black" stroke-width="1" fill="none" />
<polyline points="200.0,162.0,208.0,162.0" stroke="black" stroke-width="1" fill="none" />
<polyline points="216.0,162.0,256.0,162.0" stroke="black" stroke-width="1" fill="none" />
<polyline points="240.0,210.0,224.0,210.0" stroke="black" stroke-width="1" fill="none" />
<polyline points="216.0,218.0,248.0,218.0" stroke="black" stroke-width="1" fill="none" />
<polyline points="232.0,224.0,224.0,232.0" stroke="black" stroke-width="1" fill="none" />
<polyline points="200.0,226.0,248.0,226.0" stroke="black" stroke-width="1" fill="none" />
<polyline points="192.0,248.0,136.0,304.0" stroke="black" stroke-width="1" fill="none" />
<polyline points="128.0,304.0,184.0,248.0" stroke="black" stroke-width="1" fill="none" />
<polyline points="184.0,240.0,120.0,304.0" stroke="black" stroke-width="1" fill="none" />
<polyline points="112.0,304.0,176.0,240.0" stroke="black" stroke-width="1" fill="none" />
<polyline points="176.0,232.0,104.0,304.0" stroke="black" stroke-width="1" fill="none" />
<polyline points="104.0,302.0,176.0,302.0" stroke="black" stroke-width="1" fill="none" />
<polyline points="184.0,322.0,328.0,322.0" stroke="black" stroke-width="1" fill="none" />
<polyline points="248.0,326.0,192.0,326.0" stroke="black" stroke-width="1" fill="none" />
<polyline points="192.0,318.0,256.0,318.0" stroke="black" stroke-width="1" fill="none" />
<polyline points="248.0,334.0,184.0,334.0" stroke="black" stroke-width="1" fill="none" />
<polyline points="160.0,286.0,224.0,286.0" stroke="black" stroke-width="1" fill="none" />
<polyline points="176.0,238.0,160.0,238.0" stroke="black" stroke-width="1" fill="none" />
<polyline points="160.0,230.0,168.0,230.0" stroke="black" stroke-width="1" fill="none" />
<polyline points="168.0,222.0,160.0,222.0" stroke="black" stroke-width="1" fill="none" />
<polyline points="160.0,214.0,168.0,214.0" stroke="black" stroke-width="1" fill="none" />
<polyline points="168.0,216.0,144.0,240.0" stroke="black" stroke-width="1" fill="none" />
<polyline points="152.0,246.0,184.0,246.0" stroke="black" stroke-width="1" fill="none" />
<polyline points="200.0,262.0,152.0,262.0" stroke="black" stroke-width="1" fill="none" />
<polyline points="152.0,254.0,192.0,254.0" stroke="black" stroke-width="1" fill="none" />
<polyline points="216.0,270.0,144.0,270.0" stroke="black" stroke-width="1" fill="none" />
<polyline points="128.0,256.0,136.0,248.0" stroke="black" stroke-width="1" fill="none" />
<polyline points="128.0,230.0,120.0,230.0" stroke="black" stroke-width="1" fill="none" />
<polyline points="120.0,224.0,88.0,256.0" stroke="black" stroke-width="1" fill="none" />
<polyline points="88.0,258.0,320.0,258.0" stroke="black" stroke-width="1" fill="none" />
<polyline points="344.0,122.0,208.0,122.0" stroke="black" stroke-width="1" fill="none" />
<polyline points="200.0,130.0,344.0,130.0" stroke="black" stroke-width="1" fill="none" />
<polyline points="344.0,82.0,240.0,82.0" stroke="black" stroke-width="1" fill="none" />
<polyline points="256.0,38.0,216.0,38.0" stroke="black" stroke-width="1" fill="none" />
<polyline points="216.0,32.0,176.0,72.0" stroke="black" stroke-width="1" fill="none" />
<polyline points="176.0,78.0,184.0,78.0" stroke="black" stroke-width="1" fill="none" />
<polyline points="192.0,78.0,224.0,78.0" stroke="black" stroke-width="1" fill="none" />
<polyline points="192.0,70.0,272.0,70.0" stroke="black" stroke-width="1" fill="none" />
<polyline points="272.0,22.0,248.0,22.0" stroke="black" stroke-width="1" fill="none" />
<polyline points="248.0,16.0,176.0,88.0" stroke="black" stroke-width="1" fill="none" />
<polyline points="176.0,86.0,184.0,86.0" stroke="black" stroke-width="1" fill="none" />
<polyline points="184.0,96.0,176.0,104.0" stroke="black" stroke-width="1" fill="none" />
<polyline points="176.0,96.0,256.0,16.0" stroke="black" stroke-width="1" fill="none" />
<polyline points="256.0,10.0,304.0,10.0" stroke="black" stroke-width="1" fill="none" />
<polyline points="320.0,18.0,232.0,18.0" stroke="black" stroke-width="1" fill="none" />
<polyline points="232.0,24.0,176.0,80.0" stroke="black" stroke-width="1" fill="none" />
<polyline points="168.0,72.0,176.0,64.0" stroke="black" stroke-width="1" fill="none" />
<polyline points="176.0,56.0,168.0,64.0" stroke="black" stroke-width="1" fill="none" />
<polyline points="160.0,56.0,168.0,48.0" stroke="black" stroke-width="1" fill="none" />
<polyline points="160.0,40.0,152.0,48.0" stroke="black" stroke-width="1" fill="none" />
<polyline points="152.0,40.0,160.0,32.0" stroke="black" stroke-width="1" fill="none" />
<polyline points="152.0,32.0,144.0,40.0" stroke="black" stroke-width="1" fill="none" />
<polyline points="136.0,40.0,128.0,48.0" stroke="black" stroke-width="1" fill="none" />
<polyline points="136.0,48.0,128.0,56.0" stroke="black" stroke-width="1" fill="none" />
<polyline points="128.0,62.0,136.0,62.0" stroke="black" stroke-width="1" fill="none" />
<polyline points="136.0,64.0,128.0,72.0" stroke="black" stroke-width="1" fill="none" />
<polyline points="128.0,70.0,136.0,70.0" stroke="black" stroke-width="1" fill="none" />
<polyline points="136.0,72.0,128.0,80.0" stroke="black" stroke-width="1" fill="none" />
<polyline points="128.0,78.0,136.0,78.0" stroke="black" stroke-width="1" fill="none" />
<polyline points="136.0,80.0,128.0,88.0" stroke="black" stroke-width="1" fill="none" />
<polyline points="128.0,86.0,136.0,86.0" stroke="black" stroke-width="1" fill="none" />
<polyline points="144.0,88.0,128.0,104.0" stroke="black" stroke-width="1" fill="none" />
<polyline points="128.0,106.0,160.0,106.0" stroke="black" stroke-width="1" fill="none" />
<polyline points="168.0,106.0,344.0,106.0" stroke="black" stroke-width="1" fill="none" />
<polyline points="256.0,30.0,224.0,30.0" stroke="black" stroke-width="1" fill="none" />
<polyline points="216.0,26.0,264.0,26.0" stroke="black" stroke-width="1" fill="none" />
<polyline points="256.0,34.0,208.0,34.0" stroke="black" stroke-width="1" fill="none" />
<polyline points="200.0,46.0,256.0,46.0" stroke="black" stroke-width="1" fill="none" />
<polyline points="192.0,48.0,184.0,56.0" stroke="black" stroke-width="1" fill="none" />
<polyline points="184.0,50.0,272.0,50.0" stroke="black" stroke-width="1" fill="none" />
<polyline points="264.0,62.0,192.0,62.0" stroke="black" stroke-width="1" fill="none" />
<polyline points="192.0,54.0,256.0,54.0" stroke="black" stroke-width="1" fill="none" />
<polyline points="264.0,42.0,192.0,42.0" stroke="black" stroke-width="1" fill="none" />
<polyline points="152.0,24.0,144.0,32.0" stroke="black" stroke-width="1" fill="none" />
<polyline points="144.0,24.0,128.0,40.0" stroke="black" stroke-width="1" fill="none" />
<polyline points="128.0,32.0,144.0,16.0" stroke="black" stroke-width="1" fill="none" />
<polyline points="136.0,16.0,128.0,24.0" stroke="black" stroke-width="1" fill="none" />
<polyline points="128.0,22.0,136.0,22.0" stroke="black" stroke-width="1" fill="none" />
<polyline points="136.0,30.0,128.0,30.0" stroke="black" stroke-width="1" fill="none" />
<polyline points="128.0,26.0,152.0,26.0" stroke="black" stroke-width="1" fill="none" />
<polyline points="144.0,18.0,128.0,18.0" stroke="black" stroke-width="1" fill="none" />
<polyline points="128.0,10.0,136.0,10.0" stroke="black" stroke-width="1" fill="none" />
<polyline points="120.0,34.0,160.0,34.0" stroke="black" stroke-width="1" fill="none" />
<polyline points="136.0,56.0,128.0,64.0" stroke="black" stroke-width="1" fill="none" />
<polyline points="120.0,66.0,344.0,66.0" stroke="black" stroke-width="1" fill="none" />
<polyline points="216.0,146.0,200.0,146.0" stroke="black" stroke-width="1" fill="none" />
<polyline points="200.0,138.0,344.0,138.0" stroke="black" stroke-width="1" fill="none" />
<polyline points="208.0,154.0,200.0,154.0" stroke="black" stroke-width="1" fill="none" />
<polyline points="192.0,122.0,168.0,122.0" stroke="black" stroke-width="1" fill="none" />
<polyline points="168.0,114.0,344.0,114.0" stroke="black" stroke-width="1" fill="none" />
<polyline points="160.0,136.0,152.0,144.0" stroke="black" stroke-width="1" fill="none" />
<polyline points="152.0,146.0,184.0,146.0" stroke="black" stroke-width="1" fill="none" />
<polyline points="184.0,162.0,160.0,162.0" stroke="black" stroke-width="1" fill="none" />
<polyline points="160.0,186.0,192.0,186.0" stroke="black" stroke-width="1" fill="none" />
<polyline points="184.0,202.0,152.0,202.0" stroke="black" stroke-width="1" fill="none" />
<polyline points="152.0,208.0,96.0,264.0" stroke="black" stroke-width="1" fill="none" />
<polyline points="96.0,256.0,136.0,216.0" stroke="black" stroke-width="1" fill="none" />
<polyline points="136.0,210.0,176.0,210.0" stroke="black" stroke-width="1" fill="none" />
<polyline points="144.0,222.0,136.0,222.0" stroke="black" stroke-width="1" fill="none" />
<polyline points="120.0,218.0,176.0,218.0" stroke="black" stroke-width="1" fill="none" />
<polyline points="112.0,224.0,88.0,248.0" stroke="black" stroke-width="1" fill="none" />
<polyline points="88.0,250.0,320.0,250.0" stroke="black" stroke-width="1" fill="none" />
<polyline points="192.0,138.0,144.0,138.0" stroke="black" stroke-width="1" fill="none" />
<polyline points="144.0,136.0,152.0,128.0" stroke="black" stroke-width="1" fill="none" />
<polyline points="152.0,120.0,144.0,128.0" stroke="black" stroke-width="1" fill="none" />
<polyline points="144.0,130.0,192.0,130.0" stroke="black" stroke-width="1" fill="none" />
<polyline points="144.0,120.0,136.0,128.0" stroke="black" stroke-width="1" fill="none" />
<polyline points="136.0,122.0,160.0,122.0" stroke="black" stroke-width="1" fill="none" />
<polyline points="144.0,112.0,136.0,120.0" stroke="black" stroke-width="1" fill="none" />
<polyline points="136.0,118.0,144.0,118.0" stroke="black" stroke-width="1" fill="none" />
<polyline points="136.0,114.0,160.0,114.0" stroke="black" stroke-width="1" fill="none" />
<polyline points="144.0,104.0,136.0,112.0" stroke="black" stroke-width="1" fill="none" />
<polyline points="136.0,104.0,144.0,96.0" stroke="black" stroke-width="1" fill="none" />
<polyline points="144.0,80.0,128.0,96.0" stroke="black" stroke-width="1" fill="none" />
<polyline points="128.0,98.0,344.0,98.0" stroke="black" stroke-width="1" fill="none" />
<polyline points="344.0,90.0,128.0,90.0" stroke="black" stroke-width="1" fill="none" />
<polyline points="128.0,82.0,224.0,82.0" stroke="black" stroke-width="1" fill="none" />
<polyline points="128.0,74.0,344.0,74.0" stroke="black" stroke-width="1" fill="none" />
<polyline points="352.0,58.0,120.0,58.0" stroke="black" stroke-width="1" fill="none" />
<polyline points="120.0,50.0,168.0,50.0" stroke="black" stroke-width="1" fill="none" />
<polyline points="168.0,42.0,120.0,42.0" stroke="black" stroke-width="1" fill="none" />
<polyline points="104.0,208.0,88.0,224.0" stroke="black" stroke-width="1" fill="none" />
<polyline points="88.0,218.0,112.0,218.0" stroke="black" stroke-width="1" fill="none" />
<polyline points="104.0,216.0,88.0,232.0" stroke="black" stroke-width="1" fill="none" />
<polyline points="88.0,240.0,104.0,224.0" stroke="black" stroke-width="1" fill="none" />
<polyline points="104.0,230.0,96.0,230.0" stroke="black" stroke-width="1" fill="none" />
<polyline points="96.0,222.0,104.0,222.0" stroke="black" stroke-width="1" fill="none" />
<polyline points="104.0,214.0,96.0,214.0" stroke="black" stroke-width="1" fill="none" />
<polyline points="96.0,208.0,88.0,216.0" stroke="black" stroke-width="1" fill="none" />
<polyline points="88.0,210.0,104.0,210.0" stroke="black" stroke-width="1" fill="none" />
<polyline points="104.0,238.0,96.0,238.0" stroke="black" stroke-width="1" fill="none" />
<polyline points="88.0,242.0,328.0,242.0" stroke="black" stroke-width="1" fill="none" />
<polyline points="168.0,322.0,128.0,322.0" stroke="black" stroke-width="1" fill="none" />
<polyline points="120.0,330.0,272.0,330.0" stroke="black" stroke-width="1" fill="none" />
<polyline points="272.0,338.0,120.0,338.0" stroke="black" stroke-width="1" fill="none" />
<polyline points="112.0,306.0,176.0,306.0" stroke="black" stroke-width="1" fill="none" />
<polyline points="152.0,286.0,112.0,286.0" stroke="black" stroke-width="1" fill="none" />
<polyline points="104.0,298.0,320.0,298.0" stroke="black" stroke-width="1" fill="none" />
<polyline points="112.0,264.0,96.0,280.0" stroke="black" stroke-width="1" fill="none" />
<polyline points="96.0,282.0,320.0,282.0" stroke="black" stroke-width="1" fill="none" />
<polyline points="112.0,256.0,96.0,272.0" stroke="black" stroke-width="1" fill="none" />
<polyline points="96.0,274.0,312.0,274.0" stroke="black" stroke-width="1" fill="none" />
<polyline points="112.0,270.0,104.0,270.0" stroke="black" stroke-width="1" fill="none" />
<polyline points="88.0,266.0,312.0,266.0" stroke="black" stroke-width="1" fill="none" />
<polyline points="320.0,290.0,96.0,290.0" stroke="black" stroke-width="1" fill="none" />
<polyline points="80.0,234.0,344.0,234.0" stroke="black" stroke-width="1" fill="none" />
</svg>